<?xml version="1.0" standalone="no"?>
<!DOCTYPE svg PUBLIC "-//W3C//DTD SVG 1.1//EN" "http://www.w3.org/Graphics/SVG/1.1/DTD/svg11.dtd" >
<!--
2022-7-9: Created with FontForge (http://fontforge.org)
-->
<svg xmlns="http://www.w3.org/2000/svg" xmlns:xlink="http://www.w3.org/1999/xlink" version="1.1">
<metadata>
Created by FontForge 20170924 at Sat Jul  9 05:41:16 2022
 By node
The Fork Awesome font is licensed under the SIL OFL 1.1 (http://scripts.sil.org/OFL). Fork Awesome is a fork based of off Font Awesome 4.7.0 by Dave Gandy. More info on licenses at https://forkawesome.github.io
</metadata>
<defs>
<font id="forkawesome" horiz-adv-x="1536" >
  <font-face 
    font-family="forkawesome"
    font-weight="400"
    font-stretch="normal"
    units-per-em="1792"
    panose-1="2 0 5 3 0 0 0 0 0 0"
    ascent="1536"
    descent="-256"
    bbox="-0.767688 -410 13972 1538"
    underline-thickness="89.6"
    underline-position="-179.2"
    unicode-range="U+0020-F4DC"
  />
    <missing-glyph />
    <glyph glyph-name="space" unicode=" " horiz-adv-x="200" 
 />
    <glyph glyph-name="alipay" unicode="&#xf368;" horiz-adv-x="1568" 
d="M1322 1424c135 0 246 -111 245 -246v-820c-170 58 -349 126 -520 184c81 155 134 318 134 318h-311v110h383v66h-383v177h-178v-177h-383v-66h383v-110h-322v-58h623s-34 -106 -92 -211c-167 51 -321 87 -445 87c-296 0 -362 -148 -348 -285c12 -109 92 -267 339 -267
c226 0 408 129 520 283c214 -98 440 -219 601 -309c-2 -135 -111 -244 -246 -244h-1076c-136 0 -246 110 -246 246v1076c0 136 110 246 246 246h1076zM165 406c-3 61 39 177 275 177c87 0 227 -45 383 -110c-89 -116 -231 -255 -413 -255c-209 0 -242 117 -245 188z" />
    <glyph glyph-name="phoenix-framework" unicode="&#xf478;" horiz-adv-x="2240" 
d="M745 331c-128 -4 -381 102 -447 372c-30 124 -9 182 -28 302c-29 187 -112 252 -195 267c-22 4 -44 6 -66 2c-3 0 -5 -1 -8 -1c0 1 -1 1 -1 2c2 2 5 4 8 6c129 94 322 134 477 122c433 -33 494 -547 883 -605c21 -3 43 -4 65 -6c2 0 5 -1 9 -1c-7 -8 -76 -42 -128 -51
c-64 -12 -124 0 -179 36c-51 34 -86 82 -136 96c-46 13 -120 6 -126 -69c-5 -56 49 -181 181 -261c141 -86 355 -93 472 -51c1 0 3 1 4 1s1 -1 3 -1c-83 -99 -249 -175 -379 -159c-176 22 -272 266 -398 342c-67 40 -172 24 -182 -65c-4 -35 8 -67 23 -97
c85 -170 230 -164 238 -173c-10 -3 -77 -8 -90 -8zM264 1309c46 -51 119 -27 123 24c-43 -2 -86 -8 -128 -17c1 -3 2 -3 5 -7zM953 82c-150 -4 -323 94 -433 215c-16 18 -59 71 -65 82l2 1c23 -14 90 -65 192 -94c85 -24 168 -23 250 11c79 33 144 2 151 -10
c-65 -13 -70 -15 -84 -27c-18 -15 -17 -42 24 -61c92 -43 221 10 341 -89c8 -7 28 -27 35 -37c0 -1 -1 -1 -1 -2c-17 5 -58 27 -141 33c-86 7 -162 -19 -271 -22zM1564 964c57 18 145 47 233 12c56 -23 92 -65 113 -121c12 -33 17 -69 17 -101h-2c-1 1 -1 3 -1 4
c-18 77 -105 154 -237 105c-176 -65 -456 -34 -619 168c-2 3 -9 6 -5 11c0 1 8 -2 11 -4c63 -47 134 -77 211 -92c107 -21 190 -10 279 18zM1924 553c-113 -1 -119 -176 -363 -226c-64 -13 -135 -15 -157 -14v1c10 5 52 9 104 58c28 26 54 53 80 80c68 71 145 148 287 137
c81 -6 102 -29 126 -45c1 -1 1 -2 2 -3h-3c-24 9 -50 12 -76 12zM1881 637c0 -1 -1 -1 -1 -2c-101 15 -168 28 -240 -14c-60 -35 -110 -71 -217 -85c-95 -12 -157 -8 -231 28c-1 1 -2 1 -3 2v2c87 -13 127 -18 194 20c78 45 141 93 250 108c104 14 179 -9 248 -59zM940 1195
c-2 2 -3 5 -7 9c27 0 104 4 187 -30c69 -28 112 -73 175 -115c39 -26 82 -32 128 -28c15 1 30 4 45 6c1 0 3 0 5 -1c-2 -1 -5 -4 -7 -5c-28 -14 -58 -22 -89 -25c-91 -9 -176 13 -257 54c-68 35 -128 80 -180 135zM2240 361c-12 -11 -79 -41 -149 -19c-43 14 -69 53 -111 85
c-35 27 -73 27 -98 29c2 3 3 4 4 5c52 32 106 43 165 23c44 -15 68 -48 107 -85c38 -36 74 -35 81 -37zM1496 -118c8 -4 6 -5 6 -7c-65 5 -119 26 -164 77c-76 86 -146 98 -170 104c2 1 2 2 3 2c46 0 92 -3 137 -14c89 -22 122 -89 145 -124c11 -17 25 -28 43 -38z" />
    <glyph glyph-name="code" unicode="&#xf121;" horiz-adv-x="1830" 
d="M572 137l-50 -50c-13 -13 -33 -13 -46 0l-466 466c-13 13 -13 33 0 46l466 466c13 13 33 13 46 0l50 -50c13 -13 13 -33 0 -46l-393 -393l393 -393c13 -13 13 -33 0 -46zM1163 1204l-373 -1291c-5 -17 -23 -27 -39 -22l-62 17c-17 5 -27 23 -22 40l373 1291
c5 17 23 27 39 22l62 -17c17 -5 27 -23 22 -40zM1820 553l-466 -466c-13 -13 -33 -13 -46 0l-50 50c-13 13 -13 33 0 46l393 393l-393 393c-13 13 -13 33 0 46l50 50c13 13 33 13 46 0l466 -466c13 -13 13 -33 0 -46z" />
    <glyph glyph-name="truck" unicode="&#xf0d1;" horiz-adv-x="1728" 
d="M576 128c0 70 -58 128 -128 128s-128 -58 -128 -128s58 -128 128 -128s128 58 128 128zM192 640h384v256h-158c-4 0 -19 -6 -22 -9l-195 -195c-3 -3 -9 -18 -9 -22v-30zM1472 128c0 70 -58 128 -128 128s-128 -58 -128 -128s58 -128 128 -128s128 58 128 128zM1728 1216
v-1024c0 -74 -78 -64 -128 -64c0 -141 -115 -256 -256 -256s-256 115 -256 256h-384c0 -141 -115 -256 -256 -256s-256 115 -256 256h-64c-50 0 -128 -10 -128 64c0 35 29 64 64 64v320c0 71 -10 150 45 205l198 198c25 25 73 45 109 45h160v192c0 35 29 64 64 64h1024
c35 0 64 -29 64 -64z" />
    <glyph glyph-name="replyd" unicode="&#xf489;" horiz-adv-x="1568" 
d="M1120 -144h-672c-246 0 -448 202 -448 448v672c0 246 202 448 448 448h672c246 0 448 -202 448 -448v-672c0 -246 -202 -448 -448 -448zM677 580c-21 7 -40 11 -57 11c-25 0 -48 -7 -67 -20s-33 -31 -44 -55h-4l-15 64h-98v-486h126v314c5 19 16 34 31 46s35 18 57 18
c16 0 34 -4 54 -11zM1080 218c-11 -8 -27 -17 -48 -25s-44 -12 -71 -12c-43 0 -74 10 -93 31s-30 51 -32 92h292c3 17 5 33 7 49c2 15 3 30 3 44c0 37 -6 69 -17 94s-25 45 -43 60s-40 25 -63 32c-23 6 -47 10 -72 10c-74 0 -131 -21 -172 -64s-61 -106 -61 -192
c0 -80 18 -142 54 -188s95 -69 173 -69c37 0 73 5 106 16s60 24 79 39zM1004 464c13 -19 18 -46 16 -81h-181c3 33 13 59 29 79s40 30 73 30c29 0 50 -9 63 -28zM1283 455c14 -14 34 -20 57 -20c24 0 44 6 58 20s22 32 22 55s-8 41 -22 54s-33 20 -58 20
c-23 0 -43 -7 -57 -20s-21 -31 -21 -54s7 -41 21 -55zM1283 103c14 -14 34 -20 57 -20c24 0 44 6 58 20s22 32 22 55s-8 41 -22 54s-33 20 -58 20c-23 0 -43 -7 -57 -20s-21 -31 -21 -54s7 -41 21 -55z" />
    <glyph glyph-name="rev" unicode="&#xf48b;" horiz-adv-x="1436" 
d="M947 574v0c0 -127 -102 -230 -229 -230s-230 103 -230 230s103 229 230 229v0c127 0 229 -102 229 -229zM1436 592v-736h-736v0c-388 9 -700 327 -700 718c0 380 295 691 668 716v134l381 -220l-381 -219v136c-280 -25 -500 -260 -500 -547c0 -303 247 -550 550 -550
s550 247 550 550c0 165 -113 371 -252 461l159 92c139 -115 256 -354 260 -535h1z" />
    <glyph glyph-name="grunt" unicode="&#xf40e;" horiz-adv-x="1328" 
d="M206 873c2 17 10 35 25 42v0c-16 6 -32 11 -47 15c148 36 257 -73 291 -112c58 -67 124 -30 124 -30c1 -39 -36 -67 -74 -69c4 -54 -48 -113 -48 -113s19 52 9 88c-3 11 -6 22 -10 30c-68 -60 -168 -6 -192 21c-34 37 -44 84 -45 120c-6 -13 -12 -32 -14 -58
c0 0 -23 31 -19 66zM306 880c-10 -32 -12 -97 24 -124c57 -42 113 -18 133 -6c-26 40 -89 92 -157 130zM803 719c-38 1 -75 30 -74 68c0 0 66 -36 124 31c34 39 143 147 291 111c-15 -3 -31 -8 -47 -14v0c14 -6 22 -24 24 -42c4 -35 -18 -66 -18 -66c-2 26 -8 45 -14 58
c-2 -36 -11 -83 -45 -120c-24 -27 -123 -82 -191 -21c-4 -9 -8 -19 -11 -30c-10 -36 10 -88 10 -88s-53 59 -49 113zM1022 880c-68 -38 -131 -90 -157 -130c20 -12 76 -36 133 6c36 27 34 92 24 124zM552 71c14 0 25 -3 31 -9c8 -8 5 -19 3 -24c-4 -9 -20 -40 -46 -69
c-9 -10 -23 -16 -38 -16s-30 6 -41 15c-8 7 -36 33 -48 65c-5 12 -4 21 3 28c5 5 14 10 33 10h103zM1214 425c0 0 103 -79 74 -248c-19 -103 -81 -161 -164 -191c-31 -67 -103 -160 -236 -174c-51 -41 -121 -68 -223 -68v0c-102 0 -173 27 -223 68
c-133 14 -205 107 -236 174c-83 30 -146 88 -164 191c-30 169 72 248 72 248c8 -63 45 -118 86 -153c11 79 13 194 13 218c0 51 -34 86 -43 92c-9 5 -19 10 -29 16c-63 34 -141 76 -141 153c0 56 33 81 54 97c3 2 6 4 8 6c7 6 13 10 15 15c15 34 13 120 6 132
c-2 2 -60 73 -42 137c7 26 25 47 50 60c19 9 41 14 68 15c0 7 2 14 3 21c2 9 4 18 3 28c-1 16 -2 32 -7 40c-29 47 -101 61 -102 61l-43 9l28 33c1 1 60 61 162 61c28 0 56 -4 84 -12c85 -27 150 -107 173 -138l21 6c-4 92 72 166 98 169c2 -16 -2 -77 25 -96
c8 50 34 106 137 142c-22 -58 -2 -107 7 -130c70 64 118 53 118 53s-47 -80 -32 -135c12 -3 23 -5 34 -9c23 31 88 110 173 137c28 9 56 14 84 14c102 0 162 -60 162 -61l28 -33l-43 -9c-1 0 -72 -14 -101 -61c-5 -8 -7 -24 -8 -40c-1 -10 1 -19 3 -28c1 -7 3 -14 3 -21
c27 -1 50 -7 69 -16c25 -13 42 -33 49 -59c17 -64 -39 -135 -41 -137c-7 -12 -9 -98 6 -132c2 -5 8 -9 15 -15c2 -2 4 -4 7 -6c21 -16 54 -41 54 -98c0 -77 -78 -119 -141 -153c-10 -6 -20 -11 -29 -16c-9 -6 -43 -40 -43 -91c0 -24 2 -140 13 -219c41 35 78 90 86 153z
M1062 1404c-62 -20 -111 -81 -132 -113c6 -2 10 -4 16 -7c9 -4 17 -8 25 -13c9 19 30 48 73 78c29 20 63 31 100 31c13 0 24 -2 32 -3c12 7 23 14 34 19c-17 7 -48 18 -86 18c-21 0 -42 -4 -62 -10zM1135 1340c-26 -1 -48 -9 -68 -24c-28 -22 -42 -62 -47 -79
c17 -15 28 -28 36 -39c12 4 26 6 41 9c12 16 13 38 15 60s3 44 15 62c2 4 5 7 8 11zM152 1377c8 1 19 4 31 4c37 0 72 -12 101 -32c43 -30 63 -59 72 -78c8 4 16 9 25 13c6 3 11 6 17 8c-21 31 -70 92 -132 112c-20 6 -41 10 -62 10c-38 0 -69 -11 -86 -18
c11 -5 22 -11 34 -19zM308 1237c-5 17 -19 57 -47 79c-19 15 -43 23 -69 24c3 -4 7 -7 9 -11c12 -18 13 -41 15 -63s3 -44 15 -59c15 -3 28 -6 40 -9c8 11 20 24 37 39zM195 626c30 -18 64 -58 67 -119c3 -51 -3 -175 -12 -266c44 -17 93 -23 139 -24c7 14 13 30 19 46
c2 7 68 179 92 218c-19 -136 -61 -258 -82 -314c12 1 26 3 41 3h410c15 0 29 -1 41 -3c-21 56 -64 178 -83 314c24 -39 91 -211 93 -218c6 -16 12 -32 19 -46c46 1 96 7 139 24c-9 91 -15 215 -12 266c4 61 37 101 67 119c9 5 19 11 29 16c52 28 106 57 106 107
c0 39 -15 51 -31 64l-2 1c-2 2 -6 5 -8 7c3 -25 7 -47 10 -53c0 0 -42 53 -55 156c-5 40 4 119 18 150c-1 -17 0 -34 1 -50c1 3 2 5 4 7c12 14 42 61 33 93c-4 12 -11 22 -23 28c-13 7 -31 10 -53 10c-43 0 -91 -13 -115 -21c-88 -28 -195 -108 -225 -132l-1 -1l-19 -14
l12 20c1 1 67 110 186 163c-7 10 -26 29 -76 53c-75 37 -162 55 -260 55c-97 0 -185 -18 -260 -55c-50 -24 -69 -43 -76 -53c119 -53 185 -162 186 -163l13 -20l-20 14l-1 1c-30 24 -137 104 -225 132c-24 8 -72 21 -115 21c-22 0 -40 -3 -53 -10c-13 -6 -20 -16 -23 -28
c-8 -32 22 -79 33 -93c2 -2 3 -4 4 -7c1 16 2 33 1 50c14 -30 23 -110 18 -150c-13 -103 -55 -156 -55 -156c3 6 7 28 10 53c-3 -2 -6 -5 -8 -7l-2 -1c-16 -13 -31 -25 -31 -64c0 -50 54 -79 106 -107c10 -5 20 -10 29 -16zM114 120c42 -69 124 -103 203 -103
c-16 47 -10 84 15 111l5 5c6 8 15 20 24 35c-95 4 -222 39 -260 159c-18 -18 -29 -137 13 -207zM274 -32c23 -33 58 -69 108 -90c-17 25 -31 53 -43 81c-22 2 -44 5 -65 9zM664 -208c212 0 274 161 297 227c13 37 12 64 -3 81c-10 12 -33 25 -86 25h-416
c-53 0 -76 -13 -86 -25c-15 -17 -16 -44 -3 -81c23 -66 85 -227 297 -227zM946 -122c50 21 85 57 108 90c-21 -4 -43 -7 -65 -9c-12 -28 -26 -56 -43 -81zM1214 120c43 70 31 188 13 206c-38 -120 -165 -154 -260 -158c9 -15 19 -28 25 -36c2 -2 3 -3 4 -5
c25 -27 31 -64 15 -111c79 1 161 35 203 104zM664 879c-44 1 -96 62 -96 62c35 -21 66 -28 96 -29c30 1 61 8 96 29c0 0 -52 -62 -96 -62v0zM880 72c19 0 27 -6 32 -11c7 -7 9 -16 4 -28c-12 -31 -40 -56 -48 -63c-11 -9 -27 -15 -42 -15s-29 6 -38 16c-26 28 -42 59 -46 68
c-2 5 -4 15 4 23c6 6 16 10 31 10h103z" />
    <glyph glyph-name="chevron-circle-right" unicode="&#xf138;" 
d="M717 141l454 454c25 25 25 65 0 90l-454 454c-25 25 -65 25 -90 0l-102 -102c-25 -25 -25 -65 0 -90l307 -307l-307 -307c-25 -25 -25 -65 0 -90l102 -102c25 -25 65 -25 90 0zM1536 640c0 -424 -344 -768 -768 -768s-768 344 -768 768s344 768 768 768
s768 -344 768 -768z" />
    <glyph glyph-name="crosshairs" unicode="&#xf05b;" 
d="M1197 512h-109c-35 0 -64 29 -64 64v128c0 35 29 64 64 64h109c-43 144 -157 258 -301 301v-109c0 -35 -29 -64 -64 -64h-128c-35 0 -64 29 -64 64v109c-144 -43 -258 -157 -301 -301h109c35 0 64 -29 64 -64v-128c0 -35 -29 -64 -64 -64h-109c43 -144 157 -258 301 -301
v109c0 35 29 64 64 64h128c35 0 64 -29 64 -64v-109c144 43 258 157 301 301zM1536 704v-128c0 -35 -29 -64 -64 -64h-143c-49 -215 -218 -384 -433 -433v-143c0 -35 -29 -64 -64 -64h-128c-35 0 -64 29 -64 64v143c-215 49 -384 218 -433 433h-143c-35 0 -64 29 -64 64v128
c0 35 29 64 64 64h143c49 215 218 384 433 433v143c0 35 29 64 64 64h128c35 0 64 -29 64 -64v-143c215 -49 384 -218 433 -433h143c35 0 64 -29 64 -64z" />
    <glyph glyph-name="gg" unicode="&#xf260;" horiz-adv-x="1920" 
d="M672 736l384 -384l-384 -384l-672 672l672 672l168 -168l-96 -96l-72 72l-480 -480l480 -480l193 193l-289 287zM1248 1312l672 -672l-672 -672l-168 168l96 96l72 -72l480 480l-480 480l-193 -193l289 -287l-96 -96l-384 384z" />
    <glyph glyph-name="pied-piper-pp" unicode="&#xf47d;" horiz-adv-x="1568" 
d="M719 925c0 -74 -50 -133 -111 -133c-25 0 -46 3 -61 12v238c15 9 36 15 61 15c61 0 111 -59 111 -132zM903 690c61 0 111 -59 111 -133c0 -73 -50 -132 -111 -132c-25 0 -46 4 -61 13v238c15 9 36 14 61 14zM1568 1256v-1232c0 -93 -75 -168 -168 -168h-1232
c-93 0 -168 75 -168 168v1232c0 93 75 168 168 168h1232c93 0 168 -75 168 -168zM648 643c144 0 259 125 259 279s-115 278 -259 278c-42 0 -85 -10 -122 -30h-160v-722l182 35v177c30 -11 64 -17 100 -17zM1202 555c0 154 -117 278 -259 278c-11 0 -22 0 -33 -2
c-13 -44 -36 -83 -68 -117c-48 -52 -112 -83 -181 -87v-547l181 35v177c30 -11 64 -16 101 -16c143 0 259 125 259 279z" />
    <glyph glyph-name="broadcast-tower" unicode="&#xf384;" horiz-adv-x="2240" 
d="M528 864c-25 0 -47 15 -54 39c-17 59 -26 122 -26 185s9 126 26 185c7 24 29 39 54 39h118c39 0 65 -38 52 -74c-17 -48 -26 -98 -26 -150s9 -102 26 -150c13 -36 -13 -74 -52 -74h-118zM315 1454c-58 -109 -174 -405 0 -732c20 -37 -7 -82 -49 -82h-121
c-22 0 -43 12 -52 32c-82 177 -93 329 -93 416c0 148 33 288 91 415c9 20 29 33 51 33h124c42 0 69 -45 49 -82zM2149 1503c58 -127 91 -267 91 -415s-33 -288 -91 -415c-9 -20 -29 -33 -51 -33h-124c-42 0 -68 45 -48 82c168 314 63 613 -1 733c-20 37 7 81 49 81h124
c22 0 42 -13 51 -33zM1712 1312c25 0 47 -15 54 -39c17 -59 26 -122 26 -185s-9 -126 -26 -185c-7 -24 -29 -39 -54 -39h-118c-39 0 -65 38 -52 74c17 48 26 98 26 150s-9 102 -26 150c-13 36 13 74 52 74h118zM1305 962l456 -1097c12 -29 -1 -62 -30 -74l-103 -43
c-29 -12 -61 1 -73 30l-172 414h-526l-172 -414c-12 -29 -44 -42 -73 -30l-103 43c-29 12 -42 45 -30 74l456 1097c-25 36 -39 79 -39 126c0 124 100 224 224 224s224 -100 224 -224c0 -47 -14 -90 -39 -126zM951 416h338l-169 407z" />
    <glyph glyph-name="skate" unicode="&#xf35a;" horiz-adv-x="1194" 
d="M425 -256c-28 0 -51 23 -51 52s23 52 51 52c29 0 52 -23 52 -52s-23 -52 -52 -52zM841 -255c-28 0 -51 24 -51 53s23 52 51 52c29 0 52 -23 52 -52s-23 -53 -52 -53zM323 -101c0 0 -30 2 -30 33v3c0 31 30 33 30 33h618s30 -3 30 -33v-3c0 -30 -30 -33 -30 -33h-618z
M753 1260v0c-75 0 -137 62 -137 138s62 138 137 138s136 -62 136 -138s-61 -138 -136 -138zM10 50l331 565l124 -125l-299 -519c-14 -29 -43 -50 -78 -50c-48 0 -88 39 -88 88c0 15 4 29 10 41zM610 74c-13 -29 -41 -50 -73 -50c-44 0 -80 39 -80 88c0 15 3 29 9 41l120 231
l-234 255c-90 99 -25 206 -25 206l125 244l-333 -1c-37 0 -66 33 -66 73s29 72 66 72h1010c36 0 65 -33 65 -73s-29 -72 -65 -72h-386l-183 -353l187 -203c65 -69 23 -147 23 -147z" />
    <glyph glyph-name="linkedin-in" unicode="&#xf44f;" horiz-adv-x="1568" 
d="M351 -32h-325v1047h325v-1047zM188 1158c-104 0 -188 86 -188 190s84 188 188 188s189 -84 189 -188s-85 -190 -189 -190zM1568 -32h-325v510c0 121 -2 277 -169 277c-169 0 -195 -133 -195 -269v-518h-324v1047h311v-143h5c43 82 150 169 308 169
c329 0 389 -217 389 -498v-575v0z" />
    <glyph glyph-name="google-pay" unicode="&#xf3fd;" horiz-adv-x="2240" 
d="M370 784h349c3 -21 6 -55 6 -76v-1c0 -115 -40 -211 -110 -276c-61 -57 -145 -91 -245 -91c-127 0 -274 93 -330 207v0c-22 44 -40 120 -40 169s18 124 40 168c56 114 203 207 330 207h4c78 0 187 -43 244 -97l-106 -108c-32 31 -94 57 -138 57h-4
c-97 0 -179 -67 -208 -156v0c-6 -19 -11 -51 -11 -71s5 -53 11 -72c29 -89 111 -155 208 -155c50 0 93 13 126 36c34 23 67 74 74 114h-200v145zM1733 798c35 -33 53 -79 53 -137v-275h-80v62h-3c-34 -51 -80 -77 -137 -77c-48 0 -89 15 -121 44c-27 23 -49 71 -49 106v3
c0 46 18 83 52 111s80 41 138 41c49 0 89 -9 121 -27v19c0 25 -15 58 -34 74c-19 17 -54 31 -79 31c-46 0 -83 -19 -110 -59l-73 46c39 58 98 87 177 87c61 0 110 -16 145 -49zM1666 485c27 26 41 57 41 92c-26 21 -62 32 -108 31c-33 0 -62 -9 -84 -25s-34 -37 -34 -61v0
c0 -19 12 -43 27 -54c15 -12 44 -22 63 -22h2c30 0 72 17 93 39zM1338 982v0c33 -31 59 -93 59 -138c0 -41 -22 -99 -50 -129l-9 -9c-39 -37 -86 -56 -142 -56h-137v-265h-82v654h219h4c45 0 106 -25 138 -57zM1280 764v0c17 19 31 55 31 80c0 27 -15 63 -34 82
c-18 18 -53 33 -78 33l-1 -1h-139v-228h139h4c26 0 60 15 78 34zM2150 832h90l-277 -643h-85l103 225l-181 418h90l131 -320h1z" />
    <glyph glyph-name="hand-lizard" unicode="&#xf413;" horiz-adv-x="2016" 
d="M1948 519c44 -68 68 -147 68 -228v-435h-784v251l-349 135c-10 4 -21 6 -31 6h-460c-108 0 -196 88 -196 196c0 170 138 308 308 308h398l64 168h-686c-154 0 -280 126 -280 280v28c0 108 88 196 196 196h1029c86 0 164 -43 211 -115zM1848 24v267v0
c0 41 -19 103 -41 137l-512 790c-16 24 -41 38 -70 38h-1029c-15 0 -28 -13 -28 -28v-28c0 -62 50 -112 112 -112h747c88 0 149 -89 118 -171l-86 -225c-25 -65 -88 -108 -157 -108h-398c-77 0 -140 -63 -140 -140c0 -15 13 -28 28 -28h460h1c26 0 67 -8 91 -17l349 -136
c65 -25 107 -86 107 -156v-83h448z" />
    <glyph glyph-name="textpattern" unicode="&#xf35d;" horiz-adv-x="1779" 
d="M1567 -252c-8 2 -18 11 -58 55c-114 125 -270 285 -369 381c-84 82 -226 214 -230 214c-2 0 -122 -119 -268 -265c-190 -190 -267 -270 -275 -282c-6 -9 -14 -25 -18 -36c-6 -16 -12 -23 -31 -43c-13 -13 -24 -23 -26 -23c-5 0 -51 35 -84 63c-16 13 -38 36 -50 50
c-28 32 -61 76 -63 84c-1 5 1 10 21 30c13 13 27 24 31 25s17 7 29 13l23 11l268 267c147 147 268 269 268 270s-24 28 -55 60c-62 64 -131 139 -193 208c-23 25 -45 48 -48 52l-6 6l-81 -80l-81 -81h-21h-21l-23 19c-72 60 -155 143 -196 198c-9 12 -10 14 -10 32v19
l216 217c119 119 238 239 265 267l50 50h43l22 -18c58 -47 144 -133 192 -193l14 -18v-41l-80 -81c-44 -45 -81 -82 -81 -83s25 -24 56 -52c86 -78 163 -150 216 -202c27 -26 50 -47 52 -47c4 0 150 146 231 230c48 50 87 106 125 183l13 26l86 87c59 60 93 91 109 102
c12 9 23 16 25 16s53 -50 114 -111c81 -81 110 -112 109 -115c-6 -17 -34 -48 -114 -128c-89 -90 -90 -90 -115 -103c-64 -32 -129 -74 -167 -108c-27 -24 -253 -252 -253 -255s108 -118 190 -205c103 -108 236 -238 391 -382c48 -44 67 -64 69 -70
c10 -32 -32 -104 -92 -156c-48 -42 -92 -63 -119 -57zM261 -196c-6 7 -5 9 8 22c7 6 17 21 24 33s18 29 25 38s239 243 516 521c361 361 509 507 522 516c36 24 106 54 168 71c17 5 34 10 39 12c9 4 167 165 178 181c4 5 7 11 7 13s-43 47 -97 101l-98 98l-10 -5
c-6 -3 -50 -45 -98 -93l-87 -87l-17 -30c-24 -46 -59 -104 -83 -136c-17 -23 -113 -121 -533 -541l-513 -512l-25 -13c-14 -7 -26 -12 -28 -12c-5 0 -36 -29 -36 -34c0 -7 44 -64 69 -89c12 -13 34 -31 46 -41c22 -17 32 -23 23 -13zM1683 -168c14 13 15 17 8 23
c-3 3 -17 16 -32 28c-24 20 -85 80 -134 133c-16 17 -16 18 -5 8c7 -6 35 -32 61 -57c46 -44 90 -84 112 -103l10 -9l8 7c4 4 11 12 15 18l7 10l-49 51c-27 28 -50 52 -51 54s3 1 7 -3c39 -35 98 -86 100 -86c5 0 17 29 16 40c-1 10 -5 13 -71 75
c-209 195 -362 350 -529 532l-11 12l-12 -4c-23 -7 -67 -40 -67 -51c0 -3 7 -13 15 -21l14 -15l-16 15c-13 12 -16 14 -20 12c-10 -6 -7 -14 19 -42c23 -26 19 -24 -14 7c-14 13 -14 13 -18 8c-7 -9 -4 -13 16 -31c24 -21 94 -96 91 -96c-1 0 -25 22 -53 49
c-38 37 -51 48 -52 44c-2 -8 9 -21 48 -56c95 -88 145 -135 349 -340c121 -122 220 -221 223 -221s10 4 15 9zM1600 -32c-47 41 -400 390 -452 448c-4 5 -6 9 -5 9c5 0 53 -47 128 -125c42 -44 107 -108 143 -142c67 -63 220 -214 216 -214c-1 0 -15 11 -30 24zM1491 50
c-3 4 -3 4 1 1s6 -6 4 -6c-1 0 -3 2 -5 5zM1544 79c-33 28 -52 46 -59 56l-5 7l9 -5c11 -7 53 -46 70 -66c7 -8 12 -15 12 -15s-12 10 -27 23zM1443 93c-28 24 -76 73 -91 93c-3 4 23 -21 59 -55s64 -62 64 -63c0 -2 -2 -1 -32 25zM1188 340c-42 43 -74 78 -78 84
c-2 3 19 -19 47 -47c44 -45 65 -67 61 -67c-1 0 -14 13 -30 30zM1290 334c-13 15 -12 17 2 3c6 -6 10 -11 9 -12s-6 3 -11 9zM818 643c2 4 -10 18 -81 87c-151 148 -171 166 -172 165s1 -6 3 -11c5 -10 239 -245 244 -245c2 0 5 1 6 4zM831 659c0 2 -14 18 -32 35
s-55 55 -82 84c-51 54 -149 149 -153 149c-3 0 -4 -10 -1 -14c7 -10 261 -258 264 -258c2 0 4 2 4 4zM844 669c6 6 3 12 -23 38c-28 29 -26 27 9 -4c12 -11 23 -19 25 -19c4 0 14 8 14 12c0 1 -22 25 -50 53s-56 58 -63 66c-17 21 51 -43 85 -79c14 -15 28 -30 31 -31
c4 -2 7 0 17 9c7 6 12 13 12 15s-4 9 -8 14c-10 12 -8 14 3 3c5 -5 11 -8 13 -8c5 0 37 32 37 36c0 6 -237 232 -273 260l-8 6l-16 -9c-9 -5 -17 -11 -19 -14c-2 -4 9 -16 76 -83c43 -43 78 -79 77 -80c-2 -2 -93 84 -127 121c-18 19 -33 35 -35 35c-5 0 -25 -18 -25 -23
c0 -2 24 -28 52 -56c47 -46 72 -73 67 -73c-1 0 -29 27 -62 59c-36 36 -62 58 -65 58s-6 -1 -7 -4c-1 -4 13 -20 60 -67c61 -61 80 -82 68 -76c-5 3 -49 44 -111 104c-20 19 -23 23 -27 20c-2 -2 -4 -6 -4 -9c0 -6 266 -278 271 -278c2 0 4 2 6 4zM258 751c4 6 -4 18 -18 26
c-41 25 -97 73 -134 116c-32 37 -61 79 -60 87c2 9 208 224 323 336c102 99 177 170 180 170c4 0 44 -29 70 -51c34 -29 86 -84 113 -120c14 -18 25 -34 26 -36c1 -4 16 -10 18 -8c1 1 2 7 2 13c0 10 -2 14 -22 38c-41 50 -166 170 -189 182c-3 2 -10 3 -16 3
c-10 0 -15 -5 -268 -260l-259 -260v-13c0 -13 0 -14 27 -45c45 -53 149 -154 181 -176c7 -5 23 -6 26 -2v0z" />
    <glyph glyph-name="angle-double-left" unicode="&#xf100;" horiz-adv-x="966" 
d="M582 160c0 -8 -4 -17 -10 -23l-50 -50c-6 -6 -15 -10 -23 -10s-17 4 -23 10l-466 466c-6 6 -10 15 -10 23s4 17 10 23l466 466c6 6 15 10 23 10s17 -4 23 -10l50 -50c6 -6 10 -15 10 -23s-4 -17 -10 -23l-393 -393l393 -393c6 -6 10 -15 10 -23zM966 160
c0 -8 -4 -17 -10 -23l-50 -50c-6 -6 -15 -10 -23 -10s-17 4 -23 10l-466 466c-6 6 -10 15 -10 23s4 17 10 23l466 466c6 6 15 10 23 10s17 -4 23 -10l50 -50c6 -6 10 -15 10 -23s-4 -17 -10 -23l-393 -393l393 -393c6 -6 10 -15 10 -23z" />
    <glyph glyph-name="yarn" unicode="&#xf4da;" horiz-adv-x="1736" 
d="M1379 328c-136 -33 -169 -112 -364 -166c0 0 -10 -14 -37 -20c-47 -12 -224 -22 -240 -22c-43 0 -69 11 -76 29c-22 54 32 77 32 77c-28 18 -32 34 -35 28c-8 -20 -12 -70 -35 -92c-31 -31 -90 -21 -124 -3c-38 20 3 67 3 67s-20 -11 -36 13c-21 33 -60 131 40 217
c-5 35 -16 187 142 299c0 0 -72 80 -45 152c18 47 24 46 30 48c20 8 40 16 54 32c72 78 164 63 164 63s43 133 83 107c12 -8 57 -107 57 -107s48 27 53 17c29 -56 33 -163 20 -228c-21 -107 -75 -165 -97 -201c-5 -8 57 -35 97 -145c36 -100 4 -184 10 -193
c3 -5 49 -3 128 46c45 28 98 60 159 60c58 2 61 -68 17 -78zM1736 640c0 -479 -389 -868 -868 -868s-868 389 -868 868s389 868 868 868s868 -389 868 -868zM1458 377c-6 48 -46 81 -98 80c-77 -1 -141 -42 -184 -68c-17 -10 -32 -17 -44 -23c11 156 -78 256 -100 278
c27 40 64 97 82 186c15 76 11 194 -24 260c-6 11 -26 39 -74 26c-34 70 -46 78 -55 84c-4 2 -82 57 -144 -98c-43 -3 -110 -19 -167 -80c-7 -8 -20 -13 -35 -19v0c-29 -10 -43 -35 -59 -78c-23 -61 1 -121 24 -160c-62 -56 -130 -140 -125 -289c-119 -126 -42 -255 -20 -278
c-6 -39 13 -69 42 -84c44 -23 106 -34 154 -10c17 -18 48 -35 105 -35c24 0 203 10 254 23c24 6 40 16 51 25c34 11 129 43 218 100c63 41 85 50 132 61c45 11 73 53 67 99z" />
    <glyph glyph-name="handshake-o" unicode="&#xf2b5;" horiz-adv-x="2304" 
d="M192 384c84 0 84 128 0 128s-84 -128 0 -128zM1665 442c-79 103 -156 208 -246 302l-125 -140c-110 -125 -307 -122 -414 6c-76 92 -76 224 2 315l177 206c-62 32 -137 21 -204 21c-59 0 -116 -24 -158 -66l-158 -158h-155v-544c44 0 84 6 119 -28l297 -292
c61 -59 140 -111 227 -111c45 0 93 15 125 47c75 -26 162 16 185 93c48 -4 92 11 127 44c23 21 53 63 50 96c9 -9 31 -10 43 -10c119 0 181 125 108 219zM1824 384h96v512h-93l-157 180c-42 48 -105 76 -169 76h-167c-56 0 -110 -25 -146 -67l-209 -243
c-37 -44 -37 -106 -1 -150c57 -68 162 -69 221 -3l193 218c46 51 130 3 109 -62c38 -44 79 -87 116 -131c50 -62 98 -127 147 -190c31 -40 54 -88 60 -140zM2112 384c84 0 84 128 0 128s-84 -128 0 -128zM2304 960v-640c0 -35 -29 -64 -64 -64h-434
c-36 -87 -115 -145 -207 -158c-43 -63 -109 -111 -183 -127c-55 -70 -144 -112 -233 -106c-165 -93 -351 -12 -474 109l-287 282h-358c-35 0 -64 29 -64 64v672c0 35 29 64 64 64h421c116 116 196 224 370 224h117c65 0 128 -20 181 -56c53 36 116 56 181 56h167
c190 0 269 -124 384 -256h355c35 0 64 -29 64 -64z" />
    <glyph glyph-name="list" unicode="&#xf03a;" horiz-adv-x="1792" 
d="M256 224v-192c0 -17 -15 -32 -32 -32h-192c-17 0 -32 15 -32 32v192c0 17 15 32 32 32h192c17 0 32 -15 32 -32zM256 608v-192c0 -17 -15 -32 -32 -32h-192c-17 0 -32 15 -32 32v192c0 17 15 32 32 32h192c17 0 32 -15 32 -32zM256 992v-192c0 -17 -15 -32 -32 -32h-192
c-17 0 -32 15 -32 32v192c0 17 15 32 32 32h192c17 0 32 -15 32 -32zM1792 224v-192c0 -17 -15 -32 -32 -32h-1344c-17 0 -32 15 -32 32v192c0 17 15 32 32 32h1344c17 0 32 -15 32 -32zM256 1376v-192c0 -17 -15 -32 -32 -32h-192c-17 0 -32 15 -32 32v192
c0 17 15 32 32 32h192c17 0 32 -15 32 -32zM1792 608v-192c0 -17 -15 -32 -32 -32h-1344c-17 0 -32 15 -32 32v192c0 17 15 32 32 32h1344c17 0 32 -15 32 -32zM1792 992v-192c0 -17 -15 -32 -32 -32h-1344c-17 0 -32 15 -32 32v192c0 17 15 32 32 32h1344
c17 0 32 -15 32 -32zM1792 1376v-192c0 -17 -15 -32 -32 -32h-1344c-17 0 -32 15 -32 32v192c0 17 15 32 32 32h1344c17 0 32 -15 32 -32z" />
    <glyph glyph-name="archlinux" unicode="&#xf323;" horiz-adv-x="1794" 
d="M897 1538c164 -386 203 -504 682 -1397c-61 36 -138 70 -247 98c158 -81 236 -156 310 -214c47 -87 97 -179 152 -281c-281 162 -499 263 -702 303c7 31 11 64 12 98c5 182 -83 337 -195 347s-207 -131 -212 -313v-9c0 -43 4 -84 13 -122c-205 -39 -426 -140 -710 -304
c362 650 540 989 654 1226c60 -50 139 -99 256 -147c-109 76 -175 143 -230 201c89 190 137 318 217 514z" />
    <glyph glyph-name="weebly" unicode="&#xf4cd;" horiz-adv-x="1792" 
d="M1488 1306c178 0 306 -124 304 -293c0 -76 -3 -65 -271 -795c-78 -212 -238 -244 -325 -244c-137 0 -245 68 -301 190c-56 -121 -163 -189 -300 -189c-87 0 -247 31 -325 243c-255 701 -270 716 -270 817c0 152 135 271 306 271c141 0 257 -91 293 -226
c65 203 230 226 299 226c68 0 233 -23 297 -226c36 135 153 226 293 226zM1580 904c12 39 26 67 27 95c0 78 -57 125 -135 125c-65 0 -112 -42 -126 -102l-154 -489h-3l-157 479c-21 70 -57 112 -136 112s-115 -43 -136 -112l-157 -479h-3l-154 489c-14 60 -61 102 -126 102
c-79 0 -135 -46 -135 -103c0 -37 9 -68 28 -120l227 -614c28 -75 74 -130 162 -130c81 0 130 43 154 118l138 411h3l138 -411c23 -75 72 -119 154 -119c88 0 134 55 162 130z" />
    <glyph glyph-name="th" unicode="&#xf00a;" horiz-adv-x="1792" 
d="M512 288v-192c0 -53 -43 -96 -96 -96h-320c-53 0 -96 43 -96 96v192c0 53 43 96 96 96h320c53 0 96 -43 96 -96zM512 800v-192c0 -53 -43 -96 -96 -96h-320c-53 0 -96 43 -96 96v192c0 53 43 96 96 96h320c53 0 96 -43 96 -96zM1152 288v-192c0 -53 -43 -96 -96 -96h-320
c-53 0 -96 43 -96 96v192c0 53 43 96 96 96h320c53 0 96 -43 96 -96zM512 1312v-192c0 -53 -43 -96 -96 -96h-320c-53 0 -96 43 -96 96v192c0 53 43 96 96 96h320c53 0 96 -43 96 -96zM1152 800v-192c0 -53 -43 -96 -96 -96h-320c-53 0 -96 43 -96 96v192c0 53 43 96 96 96
h320c53 0 96 -43 96 -96zM1792 288v-192c0 -53 -43 -96 -96 -96h-320c-53 0 -96 43 -96 96v192c0 53 43 96 96 96h320c53 0 96 -43 96 -96zM1152 1312v-192c0 -53 -43 -96 -96 -96h-320c-53 0 -96 43 -96 96v192c0 53 43 96 96 96h320c53 0 96 -43 96 -96zM1792 800v-192
c0 -53 -43 -96 -96 -96h-320c-53 0 -96 43 -96 96v192c0 53 43 96 96 96h320c53 0 96 -43 96 -96zM1792 1312v-192c0 -53 -43 -96 -96 -96h-320c-53 0 -96 43 -96 96v192c0 53 43 96 96 96h320c53 0 96 -43 96 -96z" />
    <glyph glyph-name="angle-left" unicode="&#xf104;" horiz-adv-x="582" 
d="M582 992c0 -8 -4 -17 -10 -23l-393 -393l393 -393c6 -6 10 -15 10 -23s-4 -17 -10 -23l-50 -50c-6 -6 -15 -10 -23 -10s-17 4 -23 10l-466 466c-6 6 -10 15 -10 23s4 17 10 23l466 466c6 6 15 10 23 10s17 -4 23 -10l50 -50c6 -6 10 -14 10 -23z" />
    <glyph glyph-name="recycle" unicode="&#xf1b8;" horiz-adv-x="1760" 
d="M820 367l-15 -368l-2 -22l-420 29c-52 4 -95 53 -114 97c-40 93 12 203 42 292c0 0 77 -12 509 -28zM433 953l180 -379l-147 92c-225 -257 -246 -448 -246 -448l-190 357c-39 58 -4 121 -4 121s35 63 114 188l-140 86zM1664 436l-188 -359c-26 -65 -98 -71 -98 -71
s-71 -7 -219 -12l8 -164l-230 367l211 362l7 -173c339 -41 509 50 509 50zM879 1360c0 0 -47 -62 -265 -435l-317 187l-19 12l225 356c28 44 91 60 140 55c100 -9 172 -106 236 -175zM1534 1053l212 -363c27 -45 11 -108 -15 -150c-54 -84 -174 -104 -264 -129
c0 0 -34 71 -265 436l313 195zM1391 1279l142 83l-220 -373l-419 20l151 86c-120 319 -279 429 -279 429l405 -1c70 6 108 -54 108 -54s39 -61 112 -190z" />
    <glyph glyph-name="codeberg" unicode="&#xf39f;" horiz-adv-x="1792" 
d="M0 577c0 495 401 895 896 895s896 -401 896 -896c0 -168 -48 -333 -137 -476h-501l-14 49h478l-42 54h-451l-14 49h427l-45 58h-398l-12 44h376l-52 67h-343l-10 36h325l-58 75h-288l-8 28h275l-66 85h-233l-4 18h223l-312 404c-6 7 -18 7 -24 0l-747 -966
c-89 143 -137 308 -137 476zM1169 47h449l-38 -49h-398zM1198 -56h332l-53 -49h-266zM1226 -159h181l-78 -48h-89z" />
    <glyph glyph-name="telegram-plane" unicode="&#xf4b3;" horiz-adv-x="1568" 
d="M1563 1191l-236 -1116c-18 -79 -65 -98 -131 -61l-360 266l-174 -168c-19 -19 -36 -35 -73 -35l26 367l668 604c29 26 -6 40 -45 14l-826 -520l-355 111c-77 24 -79 78 16 115l1391 536c64 24 120 -15 99 -113z" />
    <glyph glyph-name="file-code-o" unicode="&#xf1c9;" 
d="M1468 1156c37 -37 68 -111 68 -164v-1152c0 -53 -43 -96 -96 -96h-1344c-53 0 -96 43 -96 96v1600c0 53 43 96 96 96h896c53 0 127 -31 164 -68zM1024 1400v-376h376c-6 17 -15 34 -22 41l-313 313c-7 7 -24 16 -41 22zM1408 -128v1024h-416c-53 0 -96 43 -96 96v416
h-768v-1536h1280zM480 768c11 14 31 17 45 6l51 -38c14 -11 17 -31 6 -45l-182 -243l182 -243c11 -14 8 -34 -6 -45l-51 -38c-14 -11 -34 -8 -45 6l-226 301c-8 11 -8 27 0 38zM1282 467c8 -11 8 -27 0 -38l-226 -301c-11 -14 -31 -17 -45 -6l-51 38c-14 11 -17 31 -6 45
l182 243l-182 243c-11 14 -8 34 6 45l51 38c14 11 34 8 45 -6zM662 6c-18 3 -29 20 -26 37l138 831c3 18 20 29 37 26l63 -10c18 -3 29 -20 26 -37l-138 -831c-3 -18 -20 -29 -37 -26z" />
    <glyph glyph-name="thumb-tack" unicode="&#xf08d;" horiz-adv-x="1152" 
d="M480 672v448c0 18 -14 32 -32 32s-32 -14 -32 -32v-448c0 -18 14 -32 32 -32s32 14 32 32zM1152 320c0 -35 -29 -64 -64 -64h-429l-51 -483c-2 -16 -15 -29 -31 -29h-1c-16 0 -29 11 -32 27l-76 485h-404c-35 0 -64 29 -64 64c0 164 124 320 256 320v512
c-70 0 -128 58 -128 128s58 128 128 128h640c70 0 128 -58 128 -128s-58 -128 -128 -128v-512c132 0 256 -156 256 -320z" />
    <glyph glyph-name="outdent" unicode="&#xf03b;" horiz-adv-x="1792" 
d="M384 992v-576c0 -17 -15 -32 -32 -32c-8 0 -17 3 -23 9l-288 288c-6 6 -9 15 -9 23s3 17 9 23l288 288c6 6 15 9 23 9c17 0 32 -15 32 -32zM1792 224v-192c0 -17 -15 -32 -32 -32h-1728c-17 0 -32 15 -32 32v192c0 17 15 32 32 32h1728c17 0 32 -15 32 -32zM1792 608
v-192c0 -17 -15 -32 -32 -32h-1088c-17 0 -32 15 -32 32v192c0 17 15 32 32 32h1088c17 0 32 -15 32 -32zM1792 992v-192c0 -17 -15 -32 -32 -32h-1088c-17 0 -32 15 -32 32v192c0 17 15 32 32 32h1088c17 0 32 -15 32 -32zM1792 1376v-192c0 -17 -15 -32 -32 -32h-1728
c-17 0 -32 15 -32 32v192c0 17 15 32 32 32h1728c17 0 32 -15 32 -32z" />
    <glyph glyph-name="dailymotion" unicode="&#xf3b8;" horiz-adv-x="1568" 
d="M1046 602c21 -12 48 -39 60 -60s21 -57 21 -81v-1c0 -48 -16 -88 -48 -120s-71 -48 -119 -48c-47 0 -86 16 -117 47s-47 72 -47 121c0 47 16 86 48 117s71 46 117 46h2c24 0 62 -9 83 -21zM0 1424h1568v-1568h-1568v1568zM1311 118v925l-195 -43v-272
c-27 28 -56 47 -87 59c-27 10 -71 19 -100 19h-4c-62 0 -118 -15 -167 -46c-42 -26 -94 -82 -116 -126c-27 -53 -41 -111 -41 -175c0 -66 14 -125 41 -178c22 -44 73 -101 115 -126c50 -31 107 -45 171 -45c93 0 158 30 195 91h3v-83h185z" />
    <glyph glyph-name="fulcrum" unicode="&#xf3f1;" horiz-adv-x="944" 
d="M248 962l-124 -153l-124 153l124 152zM417 1536v-739l-143 -157l143 -157v-739l-71 694l-179 202l178 202zM696 962l124 152l124 -152l-124 -153zM526 797v739l72 -694l179 -202l-179 -202l-72 -694v739l144 157z" />
    <glyph glyph-name="google-plus-official" unicode="&#xf2b3;" 
d="M917 631c0 22 -2 43 -6 64h-362v-132h217c-16 -106 -116 -165 -217 -165c-133 0 -239 110 -239 242s106 242 239 242c56 0 112 -19 153 -59l104 101c-71 66 -160 100 -257 100c-213 0 -384 -172 -384 -384s171 -384 384 -384c221 0 368 156 368 375zM1262 585h109v110
h-109v110h-110v-110h-110v-110h110v-110h110v110zM1536 640c0 -424 -344 -768 -768 -768s-768 344 -768 768s344 768 768 768s768 -344 768 -768z" />
    <glyph glyph-name="quinscape" unicode="&#xf482;" horiz-adv-x="1712" 
d="M1056 -125c15 -15 28 -32 46 -44c-65 -20 -172 -35 -240 -35h-6c-472 0 -856 383 -856 856s383 856 856 856s856 -383 856 -856c0 -124 -24 -236 -71 -342c-10 20 -25 36 -39 54c39 327 -218 618 -550 618c-305 0 -553 -249 -553 -554s248 -553 553 -553h4zM1055 -125h2
h-2zM1330 466v0c192 0 347 -155 347 -347v0c0 -192 -155 -347 -347 -347s-348 155 -348 347s156 347 348 347z" />
    <glyph glyph-name="quora" unicode="&#xf2c4;" horiz-adv-x="1734" 
d="M1226 749c0 417 -130 631 -435 631c-300 0 -430 -214 -430 -631c0 -415 130 -627 430 -627c48 0 91 5 131 17c-62 122 -135 245 -277 245c-27 0 -54 -4 -79 -16l-49 97c59 51 154 91 276 91c191 0 288 -92 366 -209c45 100 67 235 67 402zM1616 117h117
c7 -72 -29 -373 -356 -373c-198 0 -302 115 -381 249c-65 -18 -135 -27 -205 -27c-400 0 -791 319 -791 783c0 468 392 787 791 787c407 0 794 -317 794 -787c0 -262 -122 -475 -299 -612c57 -86 116 -143 198 -143c90 0 126 69 132 123z" />
    <glyph glyph-name="archive-org" unicode="&#xf2fc;" horiz-adv-x="1506" 
d="M1459 1344l-27 -53h-1385l-24 53l717 189zM1430 1237v-140h-1380v140h1380zM1257 442c-3 65 -4 124 -3 178c0 25 1 61 3 108s3 77 3 91c1 22 3 57 5 104s4 82 5 107c0 1 1 3 1 7v10c47 10 93 10 138 0c21 -325 21 -630 0 -916c-41 -11 -82 -12 -123 -1c-6 1 -10 2 -11 2
s-3 2 -3 3s-1 4 -1 9c-3 34 -6 90 -10 165zM80 369v0c-1 9 -1 22 -1 38c0 5 -1 11 -1 21s-1 17 -1 22c0 26 0 45 -1 57v219c2 38 3 68 3 88c2 32 3 56 3 71c1 7 1 15 1 26c0 3 1 9 1 17s1 14 1 18c0 7 0 10 1 12c0 12 0 22 1 28c0 11 1 20 2 27c0 11 0 19 1 24c0 4 2 6 7 7
c29 10 61 13 96 8c11 -2 22 -5 32 -9c2 0 3 -2 3 -6c2 -42 4 -74 6 -97c1 -20 2 -50 3 -90s2 -69 2 -88s1 -47 1 -85s1 -66 2 -84c-3 -131 -4 -199 -4 -206c-1 -47 -3 -112 -7 -194c-2 -27 -3 -47 -3 -60c0 -3 -2 -5 -6 -6c-28 -9 -59 -11 -94 -8c-4 1 -10 3 -18 5
s-12 4 -14 5c-4 0 -6 1 -6 4c0 12 0 21 -1 26c0 4 -1 8 -1 14s-1 10 -1 13c0 9 0 15 -1 20c0 6 -1 13 -1 24v25c-1 6 -2 14 -2 25s0 19 -1 25c0 17 -1 30 -2 40v24zM464 255v0v25s-1 19 -1 25c-1 10 -1 23 -1 40c-1 5 -2 13 -2 24c0 16 0 29 -1 38v43c-1 13 -2 32 -2 57v29
s-1 21 -1 27v102c0 27 0 47 1 61c0 18 1 48 3 88c0 17 1 40 3 71c0 11 0 20 1 26c0 15 1 27 2 35v12c0 4 1 9 1 15v13s1 7 2 13s1 10 1 14l2 24c0 4 1 6 5 7c30 10 62 13 96 8c11 -2 22 -5 32 -9c4 0 6 -2 6 -6l4 -97l4 -178c2 -78 3 -135 3 -169c0 -24 -1 -59 -1 -104
s-1 -79 -2 -102c-1 -47 -3 -112 -7 -194c0 -13 -1 -33 -3 -60c0 -3 -2 -5 -7 -6c-26 -10 -57 -12 -92 -8c-4 0 -7 1 -11 2s-8 3 -13 4s-8 3 -10 4c-2 0 -3 1 -3 4c-1 7 -1 15 -1 26c-1 7 -2 16 -2 27c-2 4 -3 10 -3 20zM1046 961v0c1 -26 3 -63 4 -114s2 -89 2 -114
c2 -67 3 -113 3 -140c0 -22 -1 -53 -1 -95s-1 -73 -2 -94c-1 -45 -3 -111 -7 -199c-1 -8 -2 -20 -2 -36s0 -28 -1 -36c0 -3 -2 -5 -7 -6c-27 -9 -58 -11 -93 -8c-5 1 -12 2 -20 5s-12 5 -13 5c-3 0 -5 1 -5 5c0 12 0 31 -2 56s-4 45 -5 58c0 15 -1 40 -2 73s-2 59 -3 77
c0 13 -1 33 -2 60s-1 47 -1 60v68c-1 46 -1 69 0 70c1 55 3 136 7 242c2 48 4 94 8 139c0 4 2 6 6 7c29 10 61 13 95 8c12 -2 23 -5 33 -9c3 0 4 -2 4 -6zM60 -18v98h1390v-98h-1390zM0 -128v73h1506v-73h-1506z" />
    <glyph glyph-name="print" unicode="&#xf02f;" horiz-adv-x="1664" 
d="M384 0h896v256h-896v-256zM384 640h896v384h-160c-53 0 -96 43 -96 96v160h-640v-640zM1536 576c0 35 -29 64 -64 64s-64 -29 -64 -64s29 -64 64 -64s64 29 64 64zM1664 576v-416c0 -17 -15 -32 -32 -32h-224v-160c0 -53 -43 -96 -96 -96h-960c-53 0 -96 43 -96 96v160
h-224c-17 0 -32 15 -32 32v416c0 105 87 192 192 192h64v544c0 53 43 96 96 96h672c53 0 126 -30 164 -68l152 -152c38 -38 68 -111 68 -164v-256h64c105 0 192 -87 192 -192z" />
    <glyph glyph-name="spoon" unicode="&#xf1b1;" horiz-adv-x="640" 
d="M640 1008c0 -200 -87 -331 -209 -379l45 -821c2 -35 -25 -64 -60 -64h-192c-35 0 -62 29 -60 64l45 821c-122 48 -209 179 -209 379c0 256 143 528 320 528s320 -272 320 -528z" />
    <glyph glyph-name="facebook" unicode="&#xf09a;" horiz-adv-x="864" 
d="M864 1524v-264h-157c-123 0 -146 -59 -146 -144v-189h293l-39 -296h-254v-759h-306v759h-255v296h255v218c0 253 155 391 381 391c108 0 201 -8 228 -12z" />
    <glyph glyph-name="gnu-social" unicode="&#xf2e7;" horiz-adv-x="1513" 
d="M218 1404v0h1077c121 0 218 -97 218 -218v-873c0 -121 -97 -218 -218 -218h-118c-80 -349 -645 -351 -645 -351s334 104 335 351h-649c-121 0 -218 97 -218 218v873c0 121 97 218 218 218zM532 1229c-35 -5 -114 -89 -114 -150c0 -49 -3 -127 70 -167
c-69 -67 -82 -163 -81 -247c2 -154 67 -382 357 -397s352 214 352 360h-305l50 -134l89 5s17 -107 -174 -100c-122 5 -200 68 -200 249s22 211 193 218s203 -139 203 -139l142 -3s-11 107 -93 188c73 40 72 118 69 167c-2 47 -102 169 -125 148s39 -41 34 -143
c-2 -45 11 -79 -75 -79c-57 0 -33 51 -105 51c-43 0 -59 -28 -65 -50c-6 22 -21 50 -64 50c-72 0 -49 -51 -106 -51c-86 0 -72 34 -74 79c-5 102 56 122 33 143c-1 1 -3 2 -5 2h-6z" />
    <glyph glyph-name="universal-access" unicode="&#xf29a;" horiz-adv-x="1792" 
d="M1374 879c-8 34 -42 55 -77 47c-143 -34 -273 -62 -401 -62s-258 28 -401 62c-35 8 -69 -13 -77 -47c-8 -35 13 -69 47 -77c106 -25 205 -47 303 -58c-4 -338 -41 -432 -83 -540l-9 -21c-13 -33 4 -70 37 -83c7 -3 15 -4 23 -4c26 0 50 15 60 41l8 20
c28 72 54 139 71 259h42c17 -120 43 -187 71 -259l8 -20c10 -26 34 -41 60 -41c8 0 16 1 23 4c33 13 50 50 37 83l-9 21c-42 108 -79 202 -83 540c98 11 197 33 303 58c34 8 55 42 47 77zM1024 1024c0 71 -57 128 -128 128s-128 -57 -128 -128s57 -128 128 -128
s128 57 128 128zM1600 640c0 -389 -315 -704 -704 -704s-704 315 -704 704s315 704 704 704s704 -315 704 -704zM896 1408c-423 0 -768 -345 -768 -768s345 -768 768 -768s768 345 768 768s-345 768 -768 768zM1792 640c0 -495 -401 -896 -896 -896s-896 401 -896 896
s401 896 896 896s896 -401 896 -896z" />
    <glyph glyph-name="cloud-download" unicode="&#xf0ed;" horiz-adv-x="1920" 
d="M1280 608c0 18 -14 32 -32 32h-224v352c0 17 -15 32 -32 32h-192c-17 0 -32 -15 -32 -32v-352h-224c-18 0 -32 -15 -32 -32c0 -8 3 -17 9 -23l352 -352c6 -6 14 -9 23 -9c8 0 17 3 23 9l351 351c6 7 10 15 10 24zM1920 384c0 -212 -172 -384 -384 -384h-1088
c-247 0 -448 201 -448 448c0 174 101 332 258 405c-1 15 -2 29 -2 43c0 283 229 512 512 512c208 0 395 -126 474 -318c46 40 105 62 166 62c141 0 256 -115 256 -256c0 -49 -14 -97 -41 -138c174 -41 297 -196 297 -374z" />
    <glyph glyph-name="trophy" unicode="&#xf091;" horiz-adv-x="1664" 
d="M458 653c-42 92 -74 214 -74 371h-256v-96c0 -98 133 -234 330 -275zM1536 928v96h-256c0 -157 -32 -279 -74 -371c197 41 330 177 330 275zM1664 1056v-128c0 -190 -230 -400 -542 -415c-40 -51 -77 -81 -95 -95c-53 -48 -67 -98 -67 -162s32 -128 128 -128
s192 -64 192 -160v-64c0 -18 -14 -32 -32 -32h-832c-18 0 -32 14 -32 32v64c0 96 96 160 192 160s128 64 128 128s-14 114 -67 162c-18 14 -55 44 -95 95c-312 15 -542 225 -542 415v128c0 53 43 96 96 96h288v96c0 88 72 160 160 160h576c88 0 160 -72 160 -160v-96h288
c53 0 96 -43 96 -96z" />
    <glyph glyph-name="caret-up" unicode="&#xf0d8;" horiz-adv-x="1024" 
d="M1024 320c0 -35 -29 -64 -64 -64h-896c-35 0 -64 29 -64 64c0 17 7 33 19 45l448 448c12 12 28 19 45 19s33 -7 45 -19l448 -448c12 -12 19 -28 19 -45z" />
    <glyph glyph-name="grin-stars" unicode="&#xf407;" horiz-adv-x="1736" 
d="M868 1508c480 0 868 -388 868 -868s-388 -868 -868 -868s-868 388 -868 868s388 868 868 868zM868 -60c386 0 700 314 700 700s-314 700 -700 700s-700 -314 -700 -700s314 -700 700 -700zM1238 470c35 11 68 -20 62 -54c-28 -165 -250 -280 -432 -280s-404 115 -432 280
c-6 35 28 65 62 54c91 -29 226 -46 370 -46s279 17 370 46zM440 671l21 122l-89 86c-16 16 -7 44 15 47l123 17l54 111c10 20 38 20 48 0l55 -111l122 -17c22 -4 31 -31 15 -47l-89 -86l21 -122c4 -22 -18 -38 -38 -27l-110 57l-110 -57c-20 -11 -42 5 -38 27zM1349 926
c22 -4 31 -31 15 -47l-89 -86l21 -122c4 -22 -18 -38 -38 -27l-110 57l-109 -57c-20 -11 -43 5 -39 27l21 122l-89 86c-16 16 -7 44 15 47l123 17l54 111c10 20 38 20 48 0l55 -111z" />
    <glyph glyph-name="nordcast" unicode="&#xf355;" horiz-adv-x="2279" 
d="M1935 80c-32 0 -60 3 -89 6c-82 10 -154 32 -218 66c-49 26 -93 60 -130 100c-38 41 -68 88 -90 139c-28 66 -44 141 -46 225v47v3l-2 5c-2 6 -1 2 -16 38c-11 25 -13 32 -18 43l-6 13l-7 13c-8 15 -7 14 -14 29c-4 9 -8 15 -12 23c-6 11 -6 11 -10 18l-4 7l-7 9
c-4 5 -7 9 -7 9v1l-1 -2c-1 -1 -4 -5 -7 -9l-6 -8l-4 -7c-4 -7 -4 -8 -10 -19l-12 -24s-9 -17 -14 -27l-7 -13l-5 -13c-5 -11 -8 -19 -19 -45c-7 -17 -14 -33 -15 -35c-2 -4 -5 -12 -7 -16l-6 -13l-7 -19c-4 -9 -10 -23 -14 -32l-5 -15l-8 -17c-7 -17 -7 -16 -20 -47
c-7 -17 -14 -32 -14 -33c-2 -6 -14 -31 -15 -33c0 -1 -4 -8 -8 -16c-6 -11 -9 -17 -14 -28c-6 -12 -8 -17 -14 -28c-4 -8 -8 -14 -8 -15c-1 -1 -14 -25 -15 -27s-4 -4 -5 -6c-1 -1 -4 -6 -8 -11s-10 -15 -14 -20c-7 -9 -8 -11 -10 -13c-1 -2 -15 -17 -17 -19s-5 -5 -13 -12
c-11 -10 -12 -10 -15 -13c-3 -2 -3 -2 -14 -10c-8 -5 -10 -7 -15 -9c-3 -1 -4 -3 -13 -7c-8 -4 -11 -5 -15 -6c-5 -2 -7 -3 -18 -5c-10 -2 -13 -2 -17 -3c-6 -1 -7 -1 -21 -1h-14c-5 0 -10 1 -14 2c-2 0 -16 4 -18 5c-5 1 -10 2 -15 4c-2 1 -15 8 -18 9c-5 2 -9 4 -14 7
c-4 3 -15 11 -16 12c-2 2 -6 4 -8 6c-3 3 -17 16 -19 18c-3 3 -4 4 -12 13c-10 12 -9 10 -19 23c-4 5 -10 14 -14 19c-9 12 -10 13 -12 17c-1 2 -15 25 -16 27c-1 1 -4 7 -8 15c-6 11 -8 17 -14 28c-5 11 -8 17 -14 28c-4 8 -8 15 -8 16s-4 9 -8 18c-6 14 -8 18 -20 47
c-13 31 -14 32 -21 48c-4 9 -8 17 -8 18s-6 15 -13 33l-13 32l-7 17c-7 16 -8 16 -21 47c-11 26 -14 34 -19 45l-5 13l-7 14c-5 10 -9 16 -14 26l-12 24c-6 11 -6 12 -10 19l-4 7l-6 8c-2 3 -5 6 -7 9l-1 1s-3 -4 -7 -9l-7 -9l-4 -7c-4 -7 -4 -8 -10 -19l-12 -24
s-9 -17 -14 -27l-7 -13l-6 -13c-4 -10 -7 -18 -14 -34c-5 -11 -9 -21 -10 -23s-20 -50 -43 -109s-43 -107 -43 -107l-183 112s6 17 14 37l15 36v2c1 8 3 16 6 23c1 2 14 34 15 37c0 1 3 9 7 18c7 16 8 17 21 48c10 23 15 34 18 41c6 13 5 12 7 18c1 1 1 5 2 6l1 -1s-1 1 0 2
c0 1 4 7 8 15c6 11 9 17 14 28c4 8 8 17 10 20l7 14c2 4 5 8 5 9c1 2 15 26 16 27c2 4 3 5 13 18c4 5 10 14 14 19c7 10 8 11 10 13s15 17 17 19c2 3 4 5 13 13c9 9 10 9 13 11s4 3 11 8c13 9 15 10 21 13c2 1 16 8 19 9c5 2 12 5 18 6c3 1 14 3 16 3c4 1 9 2 14 2
c2 0 3 1 13 1c12 0 14 -1 18 -1s8 0 12 -1c2 0 16 -3 18 -4c5 -1 11 -4 16 -6c3 -1 18 -8 20 -9c6 -3 7 -4 18 -11c10 -7 11 -8 15 -11c2 -2 3 -3 12 -11l14 -14c5 -5 15 -16 16 -17c2 -2 3 -4 10 -13c4 -5 10 -14 14 -19s8 -10 8 -11c1 -1 3 -5 4 -7s15 -25 16 -27
c0 -1 4 -7 8 -15c6 -11 8 -16 14 -28c5 -11 9 -17 15 -28c4 -8 8 -15 8 -16s4 -9 8 -18c6 -14 8 -18 20 -47c13 -31 13 -32 20 -48c4 -9 8 -17 8 -18s7 -16 14 -34l12 -32l8 -16c7 -16 7 -16 20 -47c11 -27 14 -34 19 -45l6 -13l7 -14l13 -26l12 -24c6 -11 6 -11 10 -19
l5 -7l6 -8c3 -4 6 -8 7 -9s1 -2 1 -2s2 5 6 10l7 9l5 7c4 7 4 8 10 19c4 9 7 14 12 24l13 26l7 14l6 13c5 11 8 18 19 44c4 9 9 23 13 32c0 1 4 8 8 17l7 16l8 21c5 12 10 26 13 33l5 12l8 17c7 17 7 17 20 48s16 38 27 62c1 3 2 5 10 20c6 11 9 17 14 27c5 11 8 16 14 28
c4 8 8 14 8 15c1 2 14 25 15 27c2 4 4 5 13 17c4 5 9 13 13 18c10 14 9 12 20 25c8 9 9 10 12 13c2 2 17 15 19 17s5 4 7 6c2 1 2 1 10 7c13 9 14 10 28 16c10 5 12 5 16 7c5 2 7 3 18 5c11 3 14 2 20 3c5 0 5 1 18 1c14 0 14 0 19 -1c6 -1 8 0 19 -3s14 -4 20 -6
c3 -1 5 -2 13 -6c10 -5 14 -6 18 -9c2 -1 4 -2 12 -8c9 -6 10 -6 13 -9c3 -2 3 -2 14 -12c8 -7 10 -9 12 -11s15 -18 17 -20s3 -4 10 -14c4 -5 11 -14 15 -19s7 -10 8 -11s3 -5 4 -6v0l1 1s3 4 4 5c20 29 44 55 71 80c13 12 34 29 48 39c66 47 145 78 235 93
c38 6 78 9 121 10c64 1 125 -5 183 -19c47 -11 92 -28 136 -48c7 -3 9 -5 18 -9l9 -4v-112v-111c-1 1 -14 9 -16 10c-30 20 -59 35 -88 48c-60 27 -121 41 -188 43h-38c-48 -2 -90 -11 -127 -29c-24 -11 -46 -26 -66 -44c-6 -6 -14 -13 -20 -20c-24 -26 -43 -58 -57 -93
c-16 -39 -26 -83 -29 -133c-1 -13 -1 -24 -1 -39c0 -13 0 -20 1 -32c1 -26 5 -52 10 -76c13 -61 37 -112 73 -153c7 -8 15 -16 23 -23c16 -15 35 -27 54 -37c3 -1 9 -5 12 -6c36 -17 77 -26 122 -29c8 0 12 -1 21 -1c33 0 66 2 97 8c35 6 67 16 100 30c37 15 73 35 111 60
l6 4v-224l-9 -4c-9 -4 -12 -6 -18 -9c-63 -30 -130 -49 -198 -59c-30 -4 -58 -6 -90 -7c-4 0 -25 -1 -29 -1z" />
    <glyph glyph-name="signal" unicode="&#xf012;" horiz-adv-x="1792" 
d="M256 96v-192c0 -18 -14 -32 -32 -32h-192c-18 0 -32 14 -32 32v192c0 18 14 32 32 32h192c18 0 32 -14 32 -32zM640 224v-320c0 -18 -14 -32 -32 -32h-192c-18 0 -32 14 -32 32v320c0 18 14 32 32 32h192c18 0 32 -14 32 -32zM1024 480v-576c0 -18 -14 -32 -32 -32h-192
c-18 0 -32 14 -32 32v576c0 18 14 32 32 32h192c18 0 32 -14 32 -32zM1408 864v-960c0 -18 -14 -32 -32 -32h-192c-18 0 -32 14 -32 32v960c0 18 14 32 32 32h192c18 0 32 -14 32 -32zM1792 1376v-1472c0 -18 -14 -32 -32 -32h-192c-18 0 -32 14 -32 32v1472
c0 18 14 32 32 32h192c18 0 32 -14 32 -32z" />
    <glyph glyph-name="hourglass-o" unicode="&#xf250;" 
d="M1408 1408c0 -370 -177 -638 -373 -768c196 -130 373 -398 373 -768h96c18 0 32 -14 32 -32v-64c0 -18 -14 -32 -32 -32h-1472c-18 0 -32 14 -32 32v64c0 18 14 32 32 32h96c0 370 177 638 373 768c-196 130 -373 398 -373 768h-96c-18 0 -32 14 -32 32v64
c0 18 14 32 32 32h1472c18 0 32 -14 32 -32v-64c0 -18 -14 -32 -32 -32h-96zM874 700c202 76 406 343 406 708h-1024c0 -365 204 -632 406 -708c25 -9 42 -33 42 -60s-17 -51 -42 -60c-202 -76 -406 -343 -406 -708h1024c0 365 -204 632 -406 708c-25 9 -42 33 -42 60
s17 51 42 60z" />
    <glyph glyph-name="address-card" unicode="&#xf2bb;" horiz-adv-x="2048" 
d="M1024 405c0 155 -38 327 -196 327c-49 -28 -115 -76 -188 -76s-139 48 -188 76c-158 0 -196 -172 -196 -327c0 -87 57 -149 128 -149h512c71 0 128 62 128 149zM867 925c0 125 -102 227 -227 227s-227 -102 -227 -227c0 -126 102 -227 227 -227s227 101 227 227z
M1792 416v64c0 18 -14 32 -32 32h-576c-18 0 -32 -14 -32 -32v-64c0 -18 14 -32 32 -32h576c18 0 32 14 32 32zM1792 676v56c0 20 -16 36 -36 36h-568c-20 0 -36 -16 -36 -36v-56c0 -20 16 -36 36 -36h568c20 0 36 16 36 36zM1792 928v64c0 18 -14 32 -32 32h-576
c-18 0 -32 -14 -32 -32v-64c0 -18 14 -32 32 -32h576c18 0 32 14 32 32zM2048 1248v-1216c0 -88 -72 -160 -160 -160h-352v96c0 18 -14 32 -32 32h-64c-18 0 -32 -14 -32 -32v-96h-768v96c0 18 -14 32 -32 32h-64c-18 0 -32 -14 -32 -32v-96h-352c-88 0 -160 72 -160 160
v1216c0 88 72 160 160 160h1728c88 0 160 -72 160 -160z" />
    <glyph glyph-name="balance-scale" unicode="&#xf24e;" horiz-adv-x="2176" 
d="M1728 1088l-384 -704h768zM448 1088l-384 -704h768zM1269 1280c-19 -54 -63 -98 -117 -117v-1291h608c18 0 32 -14 32 -32v-64c0 -18 -14 -32 -32 -32h-1344c-18 0 -32 14 -32 32v64c0 18 14 32 32 32h608v1291c-54 19 -98 63 -117 117h-491c-18 0 -32 14 -32 32v64
c0 18 14 32 32 32h491c27 75 97 128 181 128s154 -53 181 -128h491c18 0 32 -14 32 -32v-64c0 -18 -14 -32 -32 -32h-491zM1088 1264c44 0 80 36 80 80s-36 80 -80 80s-80 -36 -80 -80s36 -80 80 -80zM2176 384c0 -206 -285 -288 -448 -288s-448 82 -448 288
c0 39 349 657 392 735c11 20 33 33 56 33s45 -13 56 -33c43 -78 392 -696 392 -735zM896 384c0 -206 -285 -288 -448 -288s-448 82 -448 288c0 39 349 657 392 735c11 20 33 33 56 33s45 -13 56 -33c43 -78 392 -696 392 -735z" />
    <glyph glyph-name="google-drive" unicode="&#xf3fc;" horiz-adv-x="1792" 
d="M1186 434l-572 990h564l573 -990h-565zM705 351h1087l-282 -495h-1087zM539 1300l291 -495l-548 -949l-282 495z" />
    <glyph glyph-name="hive" unicode="&#xf423;" horiz-adv-x="1792" 
d="M911 644c1 -1 1 -3 1 -4s0 -3 -1 -4l-446 -776c-1 -2 -4 -4 -6 -4s-6 2 -7 4l-451 776c-1 1 -1 3 -1 4s0 3 1 4l446 776c1 2 5 4 7 4s5 -2 6 -4zM1048 734l-387 678c-1 1 -1 3 -1 4c0 4 3 8 7 8h233c2 0 6 -2 7 -4l387 -678c1 -1 1 -3 1 -4c0 -4 -4 -8 -8 -8h-232
c-2 0 -6 2 -7 4zM1791 644c1 -1 1 -3 1 -4s0 -3 -1 -4l-444 -776c-1 -2 -5 -4 -7 -4h-233c-4 0 -7 4 -7 8c0 1 0 3 1 4l441 772l-441 772c-1 1 -1 3 -1 4c0 4 3 8 7 8h233c2 0 6 -2 7 -4zM1281 539c4 0 8 -4 8 -8c0 -1 0 -3 -1 -4l-381 -667c-1 -2 -5 -4 -7 -4h-233
c-4 0 -7 4 -7 8c0 1 0 3 1 4l381 667c1 2 4 4 6 4h233z" />
    <glyph glyph-name="magnet" unicode="&#xf076;" 
d="M1536 704v-128c0 -408 -323 -704 -768 -704s-768 296 -768 704v128c0 35 29 64 64 64h384c35 0 64 -29 64 -64v-128c0 -183 213 -192 256 -192s256 9 256 192v128c0 35 29 64 64 64h384c35 0 64 -29 64 -64zM512 1344v-384c0 -35 -29 -64 -64 -64h-384
c-35 0 -64 29 -64 64v384c0 35 29 64 64 64h384c35 0 64 -29 64 -64zM1536 1344v-384c0 -35 -29 -64 -64 -64h-384c-35 0 -64 29 -64 64v384c0 35 29 64 64 64h384c35 0 64 -29 64 -64z" />
    <glyph glyph-name="glide-g" unicode="&#xf2a6;" horiz-adv-x="1461" 
d="M707 1231c0 53 -5 99 -69 99c-27 0 -54 -9 -78 -23c-151 -83 -213 -298 -213 -460c0 -108 37 -252 169 -252c30 0 68 -8 76 27c32 154 64 309 96 463c10 48 19 97 19 146zM1461 575c0 -10 -13 -20 -23 -20l-6 1c-68 10 -128 28 -197 28c-125 0 -240 -37 -351 -93
c-14 -7 -17 -13 -21 -27c-18 -68 -30 -138 -47 -206c-60 -233 -255 -514 -522 -514c-182 0 -294 124 -294 303c0 97 63 286 180 286c41 0 202 -53 203 -95c-2 -8 -157 -88 -157 -223c0 -41 20 -73 65 -73c159 0 232 290 248 412v9c0 8 -32 4 -38 4c-301 0 -477 168 -477 471
c0 286 186 635 491 688c35 6 70 9 106 9c242 0 374 -113 374 -360c0 -167 -57 -321 -81 -484l3 -3c108 61 222 119 350 119c13 0 41 -8 53 -13c26 -10 141 -191 141 -219z" />
    <glyph glyph-name="adjust" unicode="&#xf042;" 
d="M768 96v1088c-300 0 -544 -244 -544 -544s244 -544 544 -544zM1536 640c0 -424 -344 -768 -768 -768s-768 344 -768 768s344 768 768 768s768 -344 768 -768z" />
    <glyph glyph-name="grimace" unicode="&#xf3ff;" horiz-adv-x="1736" 
d="M868 1508c480 0 868 -388 868 -868s-388 -868 -868 -868s-868 388 -868 868s388 868 868 868zM868 -60c386 0 700 314 700 700s-314 700 -700 700s-700 -314 -700 -700s314 -700 700 -700zM588 696c-62 0 -112 50 -112 112s50 112 112 112s112 -50 112 -112
s-50 -112 -112 -112zM1148 696c-62 0 -112 50 -112 112s50 112 112 112s112 -50 112 -112s-50 -112 -112 -112zM1204 640c93 0 168 -75 168 -168v-112c0 -93 -75 -168 -168 -168h-672c-93 0 -168 75 -168 168v112c0 93 75 168 168 168h672zM616 304v84h-140v-28
c0 -31 25 -56 56 -56h84zM616 444v84h-84c-31 0 -56 -25 -56 -56v-28h140zM840 304v84h-168v-84h168zM840 444v84h-168v-84h168zM1064 304v84h-168v-84h168zM1064 444v84h-168v-84h168zM1260 360v28h-140v-84h84c31 0 56 25 56 56zM1260 444v28c0 31 -25 56 -56 56h-84v-84
h140z" />
    <glyph glyph-name="unslpash" unicode="&#xf325;" 
d="M1052 728h484v-856h-1536v856h484v-428h568v428zM484 1408h568v-428h-568v428z" />
    <glyph glyph-name="subscript" unicode="&#xf12c;" horiz-adv-x="1531" 
d="M892 167v-167h-248l-159 252l-24 42c-6 7 -9 14 -11 21h-3c-2 -7 -6 -14 -9 -21c-6 -12 -15 -28 -25 -44l-155 -250h-258v167h128l197 291l-185 272h-137v168h276l139 -228c9 -14 16 -29 23 -42c6 -7 9 -14 11 -21h3c2 7 6 14 11 21l25 42l140 228h257v-168h-125
l-184 -267l204 -296h109zM1531 -50v-206h-514l-4 27c-1 15 -3 33 -3 46c0 273 350 296 350 441c0 52 -47 87 -100 87c-39 0 -72 -18 -97 -39c-13 -11 -25 -25 -36 -38l-105 92c18 25 38 46 63 66c42 34 103 65 188 65c145 0 246 -85 246 -218c0 -239 -332 -259 -346 -403
h232v80h126z" />
    <glyph glyph-name="orcid" unicode="&#xf337;" horiz-adv-x="1792" 
d="M1792 640c0 -495 -401 -896 -896 -896s-896 401 -896 896s401 896 896 896s896 -401 896 -896zM604 233v411v338h-108v-749h108zM762 982v-750h293c247 0 397 183 397 375c0 177 -121 375 -398 375h-292zM870 329v556h166c210 0 306 -128 306 -278
c0 -92 -56 -278 -300 -278h-172zM621 1138c0 38 -32 71 -71 71s-70 -32 -70 -71c0 -38 31 -70 70 -70s71 32 71 70z" />
    <glyph glyph-name="chevron-down" unicode="&#xf078;" horiz-adv-x="1612" 
d="M1593 728l-742 -741c-25 -25 -65 -25 -90 0l-742 741c-25 25 -25 66 0 91l166 165c25 25 65 25 90 0l531 -531l531 531c25 25 65 25 90 0l166 -165c25 -25 25 -66 0 -91z" />
    <glyph glyph-name="location-arrow" unicode="&#xf124;" horiz-adv-x="1408" 
d="M1401 1187l-640 -1280c-11 -22 -33 -35 -57 -35c-5 0 -10 1 -15 2c-29 7 -49 32 -49 62v576h-576c-30 0 -55 20 -62 49s7 59 33 72l1280 640c9 5 19 7 29 7c17 0 33 -6 45 -19c20 -19 25 -49 12 -74z" />
    <glyph glyph-name="ups" unicode="&#xf4c3;" horiz-adv-x="1314" 
d="M347 476v430h114v-496c-62 -42 -342 -125 -342 137v359h114v-364c0 -112 96 -79 114 -66zM0 1274c328 174 907 216 1314 0v-773c0 -364 -264 -473 -657 -644c-395 171 -657 281 -657 644v773zM1253 501v757c-383 36 -835 13 -1193 -315v-442c0 -303 186 -398 597 -579
c410 181 596 276 596 579zM520 877c83 54 365 111 365 -230c0 -266 -166 -300 -251 -274v-241h-114v745zM634 466c7 -3 135 -59 135 179c0 217 -106 187 -135 172v-351zM911 769c-1 144 179 188 279 111v-99c-63 64 -168 63 -170 -8c-2 -93 193 -76 187 -256
c-5 -146 -164 -192 -291 -117v105c71 -63 180 -65 178 17c-2 98 -183 81 -183 247z" />
    <glyph glyph-name="check-circle" unicode="&#xf058;" 
d="M1284 802c0 17 -6 34 -18 46l-91 90c-12 12 -28 19 -45 19s-33 -7 -45 -19l-408 -407l-226 226c-12 12 -28 19 -45 19s-33 -7 -45 -19l-91 -90c-12 -12 -18 -29 -18 -46s6 -33 18 -45l362 -362c12 -12 29 -19 45 -19c17 0 34 7 46 19l543 543c12 12 18 28 18 45z
M1536 640c0 -424 -344 -768 -768 -768s-768 344 -768 768s344 768 768 768s768 -344 768 -768z" />
    <glyph glyph-name="arrow-down" unicode="&#xf063;" horiz-adv-x="1558" 
d="M1558 704c0 -34 -14 -67 -37 -90l-651 -652c-24 -23 -57 -37 -91 -37s-67 14 -90 37l-651 652c-24 23 -38 56 -38 90s14 67 38 91l74 75c24 23 57 37 91 37s67 -14 90 -37l294 -294v704c0 70 58 128 128 128h128c70 0 128 -58 128 -128v-704l294 294c23 23 56 37 90 37
s67 -14 91 -37l75 -75c23 -24 37 -57 37 -91z" />
    <glyph glyph-name="bicycle" unicode="&#xf206;" horiz-adv-x="2304" 
d="M762 384h-314c-53 0 -83 60 -51 102l188 251c-42 20 -88 31 -137 31c-176 0 -320 -144 -320 -320s144 -320 320 -320c155 0 284 110 314 256zM576 512h186c-12 56 -38 107 -75 148zM1056 512l288 384h-480l-99 -132c67 -66 112 -154 126 -252h165zM2176 448
c0 176 -144 320 -320 320c-43 0 -83 -9 -121 -24l174 -260c20 -30 12 -70 -17 -89c-11 -8 -24 -11 -36 -11c-21 0 -41 10 -53 29l-174 260c-57 -58 -93 -137 -93 -225c0 -176 144 -320 320 -320s320 144 320 320zM2304 448c0 -247 -201 -448 -448 -448s-448 201 -448 448
c0 132 58 251 149 333l-65 98l-353 -469c-12 -17 -31 -26 -51 -26h-197c-31 -217 -217 -384 -443 -384c-247 0 -448 201 -448 448s201 448 448 448c78 0 151 -20 215 -55l137 183h-224c-35 0 -64 29 -64 64s29 64 64 64h384v-128h435l-85 128h-222c-35 0 -64 29 -64 64
s29 64 64 64h256c21 0 41 -11 53 -28l267 -400c58 28 123 44 192 44c247 0 448 -201 448 -448z" />
    <glyph glyph-name="instagram" unicode="&#xf16d;" 
d="M1024 640c0 141 -115 256 -256 256s-256 -115 -256 -256s115 -256 256 -256s256 115 256 256zM1162 640c0 -218 -176 -394 -394 -394s-394 176 -394 394s176 394 394 394s394 -176 394 -394zM1270 1050c0 -51 -41 -92 -92 -92s-92 41 -92 92s41 92 92 92s92 -41 92 -92z
M768 1270c-112 0 -352 9 -453 -31c-35 -14 -61 -31 -88 -58s-44 -53 -58 -88c-40 -101 -31 -341 -31 -453s-9 -352 31 -453c14 -35 31 -61 58 -88s53 -44 88 -58c101 -40 341 -31 453 -31s352 -9 453 31c35 14 61 31 88 58s44 53 58 88c40 101 31 341 31 453s9 352 -31 453
c-14 35 -31 61 -58 88s-53 44 -88 58c-101 40 -341 31 -453 31zM1536 640c0 -106 1 -211 -5 -317c-6 -123 -34 -232 -124 -322s-199 -118 -322 -124c-106 -6 -211 -5 -317 -5s-211 -1 -317 5c-123 6 -232 34 -322 124s-118 199 -124 322c-6 106 -5 211 -5 317s-1 211 5 317
c6 123 34 232 124 322s199 118 322 124c106 6 211 5 317 5s211 1 317 -5c123 -6 232 -34 322 -124s118 -199 124 -322c6 -106 5 -211 5 -317z" />
    <glyph glyph-name="caret-square-o-up" unicode="&#xf151;" 
d="M1145 419c-11 -22 -33 -35 -57 -35h-640c-24 0 -46 13 -57 35c-11 21 -9 47 5 66l320 448c12 17 31 27 52 27s40 -10 52 -27l320 -448c14 -19 16 -45 5 -66zM1280 160v960c0 17 -15 32 -32 32h-960c-17 0 -32 -15 -32 -32v-960c0 -17 15 -32 32 -32h960c17 0 32 15 32 32
zM1536 1120v-960c0 -159 -129 -288 -288 -288h-960c-159 0 -288 129 -288 288v960c0 159 129 288 288 288h960c159 0 288 -129 288 -288z" />
    <glyph glyph-name="facebook-f" unicode="&#xf3d2;" horiz-adv-x="960" 
d="M897 528h-262v-784h-350v784h-285v324h285v247c0 281 168 437 424 437c123 0 251 -22 251 -22v-276h-142c-139 0 -183 -86 -183 -175v-211h312z" />
    <glyph glyph-name="crop" unicode="&#xf125;" horiz-adv-x="1664" 
d="M557 256h595v595zM512 301l595 595h-595v-595zM1664 224v-192c0 -18 -14 -32 -32 -32h-224v-224c0 -18 -14 -32 -32 -32h-192c-18 0 -32 14 -32 32v224h-864c-18 0 -32 14 -32 32v864h-224c-18 0 -32 14 -32 32v192c0 18 14 32 32 32h224v224c0 18 14 32 32 32h192
c18 0 32 -14 32 -32v-224h851l246 247c13 12 33 12 46 0c12 -13 12 -33 0 -46l-247 -246v-851h224c18 0 32 -14 32 -32z" />
    <glyph glyph-name="external-link" unicode="&#xf08e;" horiz-adv-x="1792" 
d="M1408 608v-320c0 -159 -129 -288 -288 -288h-832c-159 0 -288 129 -288 288v832c0 159 129 288 288 288h704c18 0 32 -14 32 -32v-64c0 -18 -14 -32 -32 -32h-704c-88 0 -160 -72 -160 -160v-832c0 -88 72 -160 160 -160h832c88 0 160 72 160 160v320c0 18 14 32 32 32
h64c18 0 32 -14 32 -32zM1792 1472v-512c0 -35 -29 -64 -64 -64c-17 0 -33 7 -45 19l-176 176l-652 -652c-6 -6 -15 -10 -23 -10s-17 4 -23 10l-114 114c-6 6 -10 15 -10 23s4 17 10 23l652 652l-176 176c-12 12 -19 28 -19 45c0 35 29 64 64 64h512c35 0 64 -29 64 -64z
" />
    <glyph glyph-name="arrow-circle-down" unicode="&#xf0ab;" 
d="M1284 639c0 17 -6 33 -18 45l-91 91c-12 12 -28 18 -45 18s-33 -6 -45 -18l-189 -189v502c0 35 -29 64 -64 64h-128c-35 0 -64 -29 -64 -64v-502l-189 189c-12 12 -28 19 -45 19s-33 -7 -45 -19l-91 -91c-12 -12 -18 -28 -18 -45s6 -33 18 -45l362 -362l91 -91
c12 -12 28 -18 45 -18s33 6 45 18l91 91l362 362c12 12 18 28 18 45zM1536 640c0 -424 -344 -768 -768 -768s-768 344 -768 768s344 768 768 768s768 -344 768 -768z" />
    <glyph glyph-name="font-awesome" unicode="&#xf2b4;" horiz-adv-x="1499" 
d="M1499 1024v-839c0 -31 -20 -54 -49 -62c-107 -32 -227 -52 -338 -52c-150 0 -277 59 -443 59c-123 0 -250 -20 -370 -48v-338h-160v1368c-84 33 -139 115 -139 205c0 121 98 219 219 219s219 -98 219 -219c0 -90 -55 -172 -139 -205v-68c112 26 228 44 343 44
c66 0 132 -5 198 -15c86 -13 173 -43 261 -43c55 0 111 7 165 18c41 8 135 40 169 40c35 0 64 -29 64 -64z" />
    <glyph glyph-name="paper-plane" unicode="&#xf1d8;" horiz-adv-x="1792" 
d="M1764 1525c21 -15 31 -39 27 -64l-256 -1536c-3 -19 -15 -35 -32 -45c-9 -5 -20 -8 -31 -8c-8 0 -16 2 -24 5l-453 185l-242 -295c-12 -15 -30 -23 -49 -23c-7 0 -15 1 -22 4c-25 9 -42 33 -42 60v349l864 1059l-1069 -925l-395 162c-23 9 -38 30 -40 55
c-1 24 11 47 32 59l1664 960c10 6 21 9 32 9c13 0 26 -4 36 -11z" />
    <glyph glyph-name="meanpath" unicode="&#xf20c;" 
d="M1311 694v-114c0 -32 -19 -52 -51 -52h-202c-32 0 -52 20 -52 52v114c0 32 20 52 52 52h202c32 0 51 -20 51 -52zM821 464v250c0 71 -47 118 -118 118h-133c-45 0 -78 -19 -96 -52c-18 33 -51 52 -96 52h-130c-70 0 -118 -47 -118 -118v-250c0 -15 7 -22 21 -22h55
c15 0 22 7 22 22v230c0 32 19 52 52 52h94c32 0 52 -20 52 -52v-230c0 -15 6 -22 21 -22h54c15 0 22 7 22 22v230c0 32 20 52 52 52h97c32 0 51 -20 51 -52v-230c0 -15 7 -22 22 -22h55c14 0 21 7 21 22zM1410 560v154c0 71 -48 118 -119 118h-264c-71 0 -119 -47 -119 -118
v-410c0 -15 8 -21 22 -21h55c15 0 21 6 21 21v180c19 -26 49 -42 94 -42h191c71 0 119 48 119 118zM1536 1176v-1072c0 -128 -104 -232 -232 -232h-1072c-128 0 -232 104 -232 232v1072c0 128 104 232 232 232h1072c128 0 232 -104 232 -232z" />
    <glyph glyph-name="long-arrow-left" unicode="&#xf177;" horiz-adv-x="1728" 
d="M1728 736v-192c0 -18 -14 -32 -32 -32h-1248v-224c0 -13 -7 -24 -19 -29s-25 -3 -35 5l-384 350c-6 6 -10 14 -10 23s4 18 10 24l384 354c10 9 23 11 35 6c11 -5 19 -16 19 -29v-224h1248c18 0 32 -14 32 -32z" />
    <glyph glyph-name="download" unicode="&#xf019;" horiz-adv-x="1664" 
d="M1280 192c0 35 -29 64 -64 64s-64 -29 -64 -64s29 -64 64 -64s64 29 64 64zM1536 192c0 35 -29 64 -64 64s-64 -29 -64 -64s29 -64 64 -64s64 29 64 64zM1664 416v-320c0 -53 -43 -96 -96 -96h-1472c-53 0 -96 43 -96 96v320c0 53 43 96 96 96h465l135 -136
c37 -36 85 -56 136 -56s99 20 136 56l136 136h464c53 0 96 -43 96 -96zM1339 985c10 -24 5 -52 -14 -70l-448 -448c-12 -13 -29 -19 -45 -19s-33 6 -45 19l-448 448c-19 18 -24 46 -14 70c10 23 33 39 59 39h256v448c0 35 29 64 64 64h256c35 0 64 -29 64 -64v-448h256
c26 0 49 -16 59 -39z" />
    <glyph glyph-name="canonical" unicode="&#xf38e;" horiz-adv-x="1280" 
d="M640 1280c353 0 640 -287 640 -640s-287 -640 -640 -640s-640 287 -640 640s287 640 640 640zM640 1124c-268 0 -484 -217 -484 -484c0 -268 216 -484 484 -484s484 216 484 484c0 267 -216 484 -484 484zM640 1048c225 0 408 -183 408 -408s-183 -408 -408 -408
s-408 183 -408 408s183 408 408 408z" />
    <glyph glyph-name="caret-down" unicode="&#xf0d7;" horiz-adv-x="1024" 
d="M1024 832c0 -17 -7 -33 -19 -45l-448 -448c-12 -12 -28 -19 -45 -19s-33 7 -45 19l-448 448c-12 12 -19 28 -19 45c0 35 29 64 64 64h896c35 0 64 -29 64 -64z" />
    <glyph glyph-name="chevron-left" unicode="&#xf053;" horiz-adv-x="1036" 
d="M1017 1235l-531 -531l531 -531c25 -25 25 -65 0 -90l-166 -166c-25 -25 -65 -25 -90 0l-742 742c-25 25 -25 65 0 90l742 742c25 25 65 25 90 0l166 -166c25 -25 25 -65 0 -90z" />
    <glyph glyph-name="hashtag" unicode="&#xf292;" horiz-adv-x="1728" 
d="M959 512l64 256h-254l-64 -256h254zM1727 1016l-56 -224c-4 -14 -16 -24 -31 -24h-327l-64 -256h311c10 0 19 -5 25 -12c6 -8 9 -18 6 -28l-56 -224c-3 -14 -16 -24 -31 -24h-327l-81 -328c-4 -14 -17 -24 -31 -24h-224c-10 0 -20 5 -26 12c-6 8 -8 18 -6 28l78 312h-254
l-81 -328c-4 -14 -17 -24 -31 -24h-225c-9 0 -19 5 -25 12c-6 8 -8 18 -6 28l78 312h-311c-10 0 -19 5 -25 12c-6 8 -8 18 -6 28l56 224c4 14 16 24 31 24h327l64 256h-311c-10 0 -19 5 -25 12c-6 8 -9 18 -6 28l56 224c3 14 16 24 31 24h327l81 328c4 14 17 24 32 24h224
c9 0 19 -5 25 -12c6 -8 8 -18 6 -28l-78 -312h254l81 328c4 14 17 24 32 24h224c9 0 19 -5 25 -12c6 -8 8 -18 6 -28l-78 -312h311c10 0 19 -5 25 -12c6 -8 8 -18 6 -28z" />
    <glyph glyph-name="font" unicode="&#xf031;" horiz-adv-x="1664" 
d="M725 977l-170 -450c99 -1 198 -4 297 -4c19 0 38 1 57 2c-52 152 -113 307 -184 452zM0 -128l2 79c94 29 196 9 238 117l237 616l280 724h128c4 -7 8 -14 11 -21l205 -480c75 -177 144 -356 220 -532c45 -104 80 -211 130 -313c7 -16 21 -46 35 -57
c33 -26 125 -32 172 -50c3 -19 6 -38 6 -57c0 -9 -1 -17 -1 -26c-127 0 -254 16 -381 16c-131 0 -262 -11 -393 -15c0 26 1 52 4 78l131 28c27 6 80 13 80 50c0 36 -129 333 -145 374l-450 2c-26 -58 -127 -320 -127 -358c0 -77 147 -80 204 -88c1 -19 1 -38 1 -58
c0 -9 -1 -18 -2 -27c-116 0 -233 20 -349 20c-14 0 -34 -6 -48 -8c-63 -11 -125 -14 -188 -14z" />
    <glyph glyph-name="clock" unicode="&#xf399;" horiz-adv-x="1736" 
d="M868 1508c480 0 868 -388 868 -868s-388 -868 -868 -868s-868 388 -868 868s388 868 868 868zM868 -60c387 0 700 313 700 700s-313 700 -700 700s-700 -313 -700 -700s313 -700 700 -700zM1084 305l-297 216c-11 8 -17 21 -17 34v575c0 23 19 42 42 42h112
c23 0 42 -19 42 -42v-496l234 -170c19 -14 23 -40 9 -59l-66 -91c-14 -19 -40 -23 -59 -9z" />
    <glyph glyph-name="sun" unicode="&#xf329;" horiz-adv-x="1707" 
d="M1706 363c-3 -10 -11 -17 -20 -20l-292 -96v-306c0 -10 -5 -20 -13 -26c-9 -6 -19 -8 -29 -4l-292 94l-180 -248c-6 -8 -16 -13 -26 -13s-20 5 -26 13l-180 248l-292 -94c-10 -4 -20 -2 -29 4c-8 6 -13 16 -13 26v306l-292 96c-9 3 -17 10 -20 20s-2 21 4 29l180 248
l-180 248c-6 9 -7 19 -4 29s11 17 20 20l292 96v306c0 10 5 20 13 26c9 6 19 8 29 4l292 -94l180 248c12 16 40 16 52 0l180 -248l292 94c10 4 20 2 29 -4c8 -6 13 -16 13 -26v-306l292 -96c9 -3 17 -10 20 -20s2 -20 -4 -29l-180 -248l180 -248c6 -8 7 -19 4 -29z" />
    <glyph glyph-name="cart-plus" unicode="&#xf217;" horiz-adv-x="1664" 
d="M1216 832c0 35 -29 64 -64 64h-128v128c0 35 -29 64 -64 64s-64 -29 -64 -64v-128h-128c-35 0 -64 -29 -64 -64s29 -64 64 -64h128v-128c0 -35 29 -64 64 -64s64 29 64 64v128h128c35 0 64 29 64 64zM640 0c0 -71 -57 -128 -128 -128s-128 57 -128 128s57 128 128 128
s128 -57 128 -128zM1536 0c0 -71 -57 -128 -128 -128s-128 57 -128 128s57 128 128 128s128 -57 128 -128zM1664 1088v-512c0 -32 -24 -60 -57 -64l-1044 -122c4 -22 13 -47 13 -70s-14 -44 -24 -64h920c35 0 64 -29 64 -64s-29 -64 -64 -64h-1024c-35 0 -64 29 -64 64
c0 31 47 108 61 137l-177 823h-204c-35 0 -64 29 -64 64s29 64 64 64h256c68 0 69 -80 79 -128h1201c35 0 64 -29 64 -64z" />
    <glyph glyph-name="folder-open-o" unicode="&#xf115;" horiz-adv-x="1909" 
d="M1781 605c0 28 -31 35 -53 35h-1088c-53 0 -123 -33 -157 -74l-294 -363c-9 -12 -18 -25 -18 -40c0 -28 31 -35 53 -35h1088c53 0 123 33 157 75l294 363c9 11 18 24 18 39zM640 768h768v160c0 53 -43 96 -96 96h-576c-53 0 -96 43 -96 96v64c0 53 -43 96 -96 96h-320
c-53 0 -96 -43 -96 -96v-853l256 315c58 71 165 122 256 122zM1909 605c0 -44 -19 -86 -46 -120l-295 -363c-57 -70 -166 -122 -256 -122h-1088c-123 0 -224 101 -224 224v960c0 123 101 224 224 224h320c123 0 224 -101 224 -224v-32h544c123 0 224 -101 224 -224v-160h192
c68 0 136 -31 166 -95c10 -21 15 -44 15 -68z" />
    <glyph glyph-name="tor-onion" unicode="&#xf32e;" horiz-adv-x="1083" 
d="M928 690c99 -90 155 -218 155 -353c0 -133 -60 -264 -164 -349c-98 -82 -231 -116 -361 -116c-81 0 -153 3 -232 29c-178 60 -313 215 -324 399c-11 144 21 252 133 367c59 60 175 130 256 184c40 26 82 103 1 247l16 12l91 -37c17 113 61 226 123 338l-44 -174
c62 124 161 217 276 299c-84 -98 -160 -193 -206 -291c79 110 185 172 304 212c-149 -133 -270 -276 -363 -420l59 -25c-33 -105 62 -179 93 -196c68 -39 134 -78 187 -126zM289 -43v0c28 -14 56 -24 89 -32c-36 14 -65 34 -88 60l-9 9c-53 59 -115 159 -138 250
c-9 37 -15 65 -6 104c42 150 133 209 224 271c20 14 45 27 65 42c39 28 61 114 81 184c-11 -57 -23 -158 -73 -197c-20 -15 -41 -30 -63 -45c-88 -60 -177 -116 -217 -262c-9 -31 -2 -63 6 -94c22 -88 83 -184 133 -240c0 -2 10 -8 10 -11c37 -43 51 -59 161 -85
c-29 11 -58 24 -78 38c-88 60 -131 137 -139 247c-5 87 48 176 150 232c71 36 93 95 115 163c-15 -79 -33 -128 -107 -171c-88 -50 -150 -148 -144 -216c8 -84 65 -178 130 -234c26 -22 68 -37 108 -48c-11 8 -23 19 -32 34c-12 19 -22 43 -31 68c-8 23 -17 48 -17 70
c0 53 6 117 45 162c34 40 45 45 60 93c-11 -54 -17 -58 -50 -104c-42 -59 -43 -116 -38 -153c5 -23 12 -45 20 -64c9 -25 19 -46 34 -66c12 -15 18 -26 37 -34c19 37 32 113 34 156c2 37 5 79 -1 121c-8 57 -25 112 -27 155c9 -39 30 -94 42 -150c9 -45 11 -87 8 -120
c-3 -39 -5 -69 -11 -102c-5 -22 -14 -43 -31 -65c40 31 65 79 76 135c17 74 19 143 19 180c2 33 -13 85 -27 133c-9 36 -43 73 -52 99c-15 45 -9 77 -11 141c6 -59 6 -110 21 -133c14 -23 34 -57 48 -90c23 -60 37 -127 39 -158c2 -53 -6 -137 -25 -202
c-9 -33 -22 -60 -37 -82c28 36 50 83 58 123c25 112 42 229 27 299c-5 15 -9 69 -31 128c-33 85 -77 156 -82 171c-17 46 -21 166 -23 231c2 -76 17 -188 28 -214c6 -17 55 -95 88 -177c23 -54 30 -104 33 -119c19 -152 2 -215 -37 -353c-5 -19 -13 -36 -22 -53
c25 31 45 65 51 93c39 170 53 389 -1 556c-28 88 -96 164 -110 217c-12 48 -11 101 -8 166l-138 60c9 -12 32 -68 37 -83c12 -46 6 -90 -3 -110c-50 -91 -136 -117 -198 -168c-112 -91 -231 -164 -219 -413c6 -122 103 -273 247 -343z" />
    <glyph glyph-name="tachometer" unicode="&#xf0e4;" horiz-adv-x="1792" 
d="M384 384c0 71 -57 128 -128 128s-128 -57 -128 -128s57 -128 128 -128s128 57 128 128zM576 832c0 71 -57 128 -128 128s-128 -57 -128 -128s57 -128 128 -128s128 57 128 128zM1004 351l101 382c8 34 -12 69 -46 78s-69 -12 -78 -46l-101 -382
c-79 -6 -148 -61 -170 -142c-27 -103 35 -208 137 -235c103 -27 208 35 235 137c21 81 -13 163 -78 208zM1664 384c0 71 -57 128 -128 128s-128 -57 -128 -128s57 -128 128 -128s128 57 128 128zM1024 1024c0 71 -57 128 -128 128s-128 -57 -128 -128s57 -128 128 -128
s128 57 128 128zM1472 832c0 71 -57 128 -128 128s-128 -57 -128 -128s57 -128 128 -128s128 57 128 128zM1792 384c0 -172 -49 -338 -141 -483c-12 -18 -32 -29 -54 -29h-1402c-22 0 -42 11 -54 29c-92 144 -141 311 -141 483c0 494 402 896 896 896s896 -402 896 -896z
" />
    <glyph glyph-name="think-peaks" unicode="&#xf4b6;" horiz-adv-x="1853" 
d="M1548 103l-721 1238l-715 -1232l-112 1l827 1426l721 -1239l193 333l112 -1zM305 257l523 903l826 -1416h-114l-712 1222l-411 -709h-112z" />
    <glyph glyph-name="creative-commons" unicode="&#xf25e;" horiz-adv-x="1792" 
d="M605 303c-200 0 -344 142 -344 337c0 192 147 337 344 337c159 0 240 -92 243 -96c9 -11 10 -27 2 -39l-53 -78c-5 -8 -14 -13 -24 -14s-19 3 -26 10c0 0 -55 56 -138 56c-99 0 -170 -73 -170 -175c0 -103 73 -177 174 -177c92 0 155 67 156 67c7 8 17 12 27 11
c10 -2 20 -8 24 -17l45 -82c7 -11 5 -26 -3 -36c-4 -4 -93 -104 -257 -104zM1235 303c-200 0 -344 142 -344 337c0 192 148 337 344 337c159 0 240 -92 243 -96c9 -11 10 -27 2 -39l-53 -78c-5 -8 -14 -13 -24 -14s-19 3 -26 10c0 0 -54 56 -138 56
c-99 0 -170 -73 -170 -175c0 -103 73 -177 174 -177c92 0 155 67 156 67c7 8 17 12 27 11c11 -2 20 -8 25 -17l45 -82c6 -11 4 -26 -4 -36c-4 -4 -92 -104 -257 -104zM896 1376c-406 0 -736 -330 -736 -736s330 -736 736 -736s736 330 736 736s-330 736 -736 736zM896 1536
c495 0 896 -401 896 -896s-401 -896 -896 -896s-896 401 -896 896s401 896 896 896z" />
    <glyph glyph-name="clipboard" unicode="&#xf0ea;" horiz-adv-x="1792" 
d="M768 -128h896v640h-416c-53 0 -96 43 -96 96v416h-384v-1152zM1024 1312v64c0 17 -15 32 -32 32h-704c-17 0 -32 -15 -32 -32v-64c0 -17 15 -32 32 -32h704c17 0 32 15 32 32zM1280 640h299l-299 299v-299zM1792 512v-672c0 -53 -43 -96 -96 -96h-960
c-53 0 -96 43 -96 96v160h-544c-53 0 -96 43 -96 96v1344c0 53 43 96 96 96h1088c53 0 96 -43 96 -96v-328c13 -8 25 -17 36 -28l408 -408c38 -38 68 -111 68 -164z" />
    <glyph glyph-name="eercast" unicode="&#xf2da;" horiz-adv-x="1719" 
d="M1304 752c35 54 -6 191 -128 272c-121 81 -276 75 -312 21c-35 -53 40 -19 177 -70c226 -84 228 -277 263 -223zM1667 178c-283 -696 -1558 -520 -1531 383c3 115 35 192 68 302c-211 -864 966 -1367 1449 -685c18 25 23 23 14 0zM1428 627c0 -283 -228 -513 -509 -513
s-509 230 -509 513s228 513 509 513s509 -230 509 -513zM1715 915c-356 808 -1826 510 -1663 -589c-338 1101 1055 1606 1570 822c42 -64 90 -176 93 -233zM1653 573c17 338 -217 569 -533 656c-5 0 -27 9 14 13c772 -26 800 -1260 -41 -1274c274 76 543 266 560 605z" />
    <glyph glyph-name="chevron-circle-up" unicode="&#xf139;" 
d="M1165 397l102 102c25 25 25 65 0 90l-454 454c-25 25 -65 25 -90 0l-454 -454c-25 -25 -25 -65 0 -90l102 -102c25 -25 65 -25 90 0l307 307l307 -307c25 -25 65 -25 90 0zM1536 640c0 -424 -344 -768 -768 -768s-768 344 -768 768s344 768 768 768s768 -344 768 -768z
" />
    <glyph glyph-name="reply" unicode="&#xf112;" horiz-adv-x="1792" 
d="M1792 416c0 -140 -70 -323 -127 -451c-11 -23 -22 -55 -37 -76c-7 -10 -14 -17 -28 -17c-20 0 -32 16 -32 35c0 16 4 34 5 50c3 41 5 82 5 123c0 477 -283 560 -714 560h-224v-256c0 -35 -29 -64 -64 -64c-17 0 -33 7 -45 19l-512 512c-12 12 -19 28 -19 45s7 33 19 45
l512 512c12 12 28 19 45 19c35 0 64 -29 64 -64v-256h224c328 0 736 -58 875 -403c42 -106 53 -221 53 -333z" />
    <glyph glyph-name="hourglass-half" unicode="&#xf252;" 
d="M1408 1408c0 -370 -177 -638 -373 -768c196 -130 373 -398 373 -768h96c18 0 32 -14 32 -32v-64c0 -18 -14 -32 -32 -32h-1472c-18 0 -32 14 -32 32v64c0 18 14 32 32 32h96c0 370 177 638 373 768c-196 130 -373 398 -373 768h-96c-18 0 -32 14 -32 32v64
c0 18 14 32 32 32h1472c18 0 32 -14 32 -32v-64c0 -18 -14 -32 -32 -32h-96zM1280 1408h-1024c0 -146 33 -275 85 -384h854c52 109 85 238 85 384zM1223 192c-74 193 -207 330 -340 384h-230c-133 -54 -266 -191 -340 -384h910z" />
    <glyph glyph-name="microchip" unicode="&#xf2db;" 
d="M192 256v-128h-112c-9 0 -16 7 -16 16v16h-48c-9 0 -16 7 -16 16v32c0 9 7 16 16 16h48v16c0 9 7 16 16 16h112zM192 512v-128h-112c-9 0 -16 7 -16 16v16h-48c-9 0 -16 7 -16 16v32c0 9 7 16 16 16h48v16c0 9 7 16 16 16h112zM192 768v-128h-112c-9 0 -16 7 -16 16v16
h-48c-9 0 -16 7 -16 16v32c0 9 7 16 16 16h48v16c0 9 7 16 16 16h112zM192 1024v-128h-112c-9 0 -16 7 -16 16v16h-48c-9 0 -16 7 -16 16v32c0 9 7 16 16 16h48v16c0 9 7 16 16 16h112zM192 1280v-128h-112c-9 0 -16 7 -16 16v16h-48c-9 0 -16 7 -16 16v32c0 9 7 16 16 16
h48v16c0 9 7 16 16 16h112zM1280 1440v-1472c0 -53 -43 -96 -96 -96h-832c-53 0 -96 43 -96 96v1472c0 53 43 96 96 96h832c53 0 96 -43 96 -96zM1536 208v-32c0 -9 -7 -16 -16 -16h-48v-16c0 -9 -7 -16 -16 -16h-112v128h112c9 0 16 -7 16 -16v-16h48c9 0 16 -7 16 -16z
M1536 464v-32c0 -9 -7 -16 -16 -16h-48v-16c0 -9 -7 -16 -16 -16h-112v128h112c9 0 16 -7 16 -16v-16h48c9 0 16 -7 16 -16zM1536 720v-32c0 -9 -7 -16 -16 -16h-48v-16c0 -9 -7 -16 -16 -16h-112v128h112c9 0 16 -7 16 -16v-16h48c9 0 16 -7 16 -16zM1536 976v-32
c0 -9 -7 -16 -16 -16h-48v-16c0 -9 -7 -16 -16 -16h-112v128h112c9 0 16 -7 16 -16v-16h48c9 0 16 -7 16 -16zM1536 1232v-32c0 -9 -7 -16 -16 -16h-48v-16c0 -9 -7 -16 -16 -16h-112v128h112c9 0 16 -7 16 -16v-16h48c9 0 16 -7 16 -16z" />
    <glyph glyph-name="graduation-cap" unicode="&#xf19d;" horiz-adv-x="2304" 
d="M1774 700l18 -316c8 -141 -287 -256 -640 -256s-648 115 -640 256l18 316l574 -181c16 -5 32 -7 48 -7s32 2 48 7zM2304 1024c0 -14 -9 -26 -22 -31l-1120 -352c-4 -1 -7 -1 -10 -1s-6 0 -10 1l-652 206c-57 -45 -97 -155 -105 -290c38 -22 63 -62 63 -109
c0 -45 -23 -84 -58 -107l58 -433c1 -9 -2 -18 -8 -25s-15 -11 -24 -11h-192c-9 0 -18 4 -24 11s-9 16 -8 25l58 433c-35 23 -58 62 -58 107c0 48 27 89 65 111c6 117 36 243 98 330l-333 104c-13 5 -22 17 -22 31s9 26 22 31l1120 352c4 1 7 1 10 1s6 0 10 -1l1120 -352
c13 -5 22 -17 22 -31z" />
    <glyph glyph-name="user-circle" unicode="&#xf2bd;" horiz-adv-x="1792" 
d="M1523 197c-26 187 -102 353 -272 376c-88 -96 -215 -157 -355 -157s-267 61 -355 157c-170 -23 -246 -189 -272 -376c139 -196 368 -325 627 -325s488 129 627 325zM1280 896c0 212 -172 384 -384 384s-384 -172 -384 -384s172 -384 384 -384s384 172 384 384zM1792 640
c0 -493 -400 -896 -896 -896c-495 0 -896 402 -896 896c0 495 401 896 896 896s896 -401 896 -896z" />
    <glyph glyph-name="typo3" unicode="&#xf4bb;" horiz-adv-x="1517" 
d="M601 1262c0 -232 292 -928 492 -928c24 0 41 0 65 8c-173 -278 -387 -486 -514 -486c-271 0 -644 819 -644 1181c0 57 14 103 33 130c94 113 374 203 617 233c-30 -24 -49 -52 -49 -138zM1031 1424c251 0 486 -41 486 -184c0 -289 -184 -638 -276 -638
c-168 0 -356 463 -356 695c0 108 41 127 146 127z" />
    <glyph glyph-name="info-circle" unicode="&#xf05a;" 
d="M1024 160v160c0 18 -14 32 -32 32h-96v512c0 18 -14 32 -32 32h-320c-18 0 -32 -14 -32 -32v-160c0 -18 14 -32 32 -32h96v-320h-96c-18 0 -32 -14 -32 -32v-160c0 -18 14 -32 32 -32h448c18 0 32 14 32 32zM896 1056v160c0 18 -14 32 -32 32h-192c-18 0 -32 -14 -32 -32
v-160c0 -18 14 -32 32 -32h192c18 0 32 14 32 32zM1536 640c0 -424 -344 -768 -768 -768s-768 344 -768 768s344 768 768 768s768 -344 768 -768z" />
    <glyph glyph-name="artstation" unicode="&#xf2ed;" horiz-adv-x="1533" 
d="M601 1277v0h267c51 0 112 -37 136 -83l504 -878c16 -24 25 -53 25 -84c0 -35 -7 -53 -31 -94l-123 -213zM474 1058l348 -604h-695zM0 233v0h949l178 -309h-859c-53 0 -114 38 -138 85h-1z" />
    <glyph glyph-name="nimblr" unicode="&#xf469;" horiz-adv-x="1244" 
d="M814 488c54 0 95 -40 95 -94s-41 -95 -95 -95c-55 0 -95 41 -95 95s40 94 95 94zM346 394c0 55 42 95 96 95s95 -41 95 -95s-40 -94 -95 -94c-54 0 -96 39 -96 94zM622 980c344 0 622 -277 622 -618s-278 -618 -622 -618s-622 276 -622 618v1174l158 -794
c106 169 342 238 464 238zM622 -99v0c256 0 464 207 464 461s-208 460 -464 460s-464 -206 -464 -460s208 -461 464 -461z" />
    <glyph glyph-name="exchange" unicode="&#xf0ec;" horiz-adv-x="1792" 
d="M1792 352v-192c0 -17 -15 -32 -32 -32h-1376v-192c0 -17 -14 -32 -32 -32c-9 0 -17 4 -24 10l-319 320c-6 6 -9 14 -9 22c0 9 3 17 9 23l320 320c6 6 15 9 23 9c17 0 32 -14 32 -32v-192h1376c17 0 32 -14 32 -32zM1792 896c0 -8 -3 -17 -9 -23l-320 -320
c-6 -6 -15 -9 -23 -9c-17 0 -32 15 -32 32v192h-1376c-17 0 -32 15 -32 32v192c0 17 15 32 32 32h1376v192c0 18 14 32 32 32c9 0 17 -4 24 -10l319 -319c6 -6 9 -15 9 -23z" />
    <glyph glyph-name="file-alt" unicode="&#xf3d8;" horiz-adv-x="1344" 
d="M1008 668v-98c0 -23 -19 -42 -42 -42h-588c-23 0 -42 19 -42 42v98c0 23 19 42 42 42h588c23 0 42 -19 42 -42zM966 416c23 0 42 -19 42 -42v-98c0 -23 -19 -42 -42 -42h-588c-23 0 -42 19 -42 42v98c0 23 19 42 42 42h588zM1344 1074v-1162c0 -93 -75 -168 -168 -168
h-1008c-93 0 -168 75 -168 168v1456c0 93 75 168 168 168h714c44 0 87 -17 119 -49l294 -294c32 -31 49 -75 49 -119zM896 1354v-266h266zM1176 -88v1008h-364c-47 0 -84 37 -84 84v364h-560v-1456h1008z" />
    <glyph glyph-name="hand-o-up" unicode="&#xf0a6;" 
d="M1280 -64c0 35 -29 64 -64 64s-64 -29 -64 -64s29 -64 64 -64s64 29 64 64zM1408 700c0 113 -46 189 -167 189c-19 0 -38 -2 -56 -5c-23 42 -80 65 -126 65c-24 0 -48 -6 -69 -18c-32 34 -72 53 -119 53c-32 0 -79 -14 -103 -35v331c0 69 -59 128 -128 128
c-68 0 -128 -61 -128 -128v-576c-63 0 -128 96 -256 96c-96 0 -128 -75 -128 -160c0 -28 116 -79 139 -90c22 -12 44 -24 65 -37c53 -33 99 -71 145 -112c73 -64 163 -135 163 -241v-32h640v32c0 175 128 346 128 540zM1536 705c0 -112 -31 -218 -69 -322
c-22 -61 -59 -160 -59 -223v-288c0 -71 -57 -128 -128 -128h-640c-71 0 -128 57 -128 128v288c0 48 -86 116 -119 145c-41 36 -82 70 -129 100c-93 58 -264 101 -264 235c0 159 87 288 256 288c44 0 87 -7 128 -22v374c0 138 117 256 255 256c140 0 257 -116 257 -256v-169
c42 -3 82 -16 119 -37c14 2 29 3 43 3c64 0 128 -21 178 -60c189 2 300 -127 300 -312z" />
    <glyph glyph-name="meh" unicode="&#xf459;" horiz-adv-x="1736" 
d="M868 1508c480 0 868 -388 868 -868s-388 -868 -868 -868s-868 388 -868 868s388 868 868 868zM868 -60c386 0 700 314 700 700s-314 700 -700 700s-700 -314 -700 -700s314 -700 700 -700zM588 696c-62 0 -112 50 -112 112s50 112 112 112s112 -50 112 -112
s-50 -112 -112 -112zM1148 920c62 0 112 -50 112 -112s-50 -112 -112 -112s-112 50 -112 112s50 112 112 112zM1176 416c46 0 84 -38 84 -84s-38 -84 -84 -84h-616c-46 0 -84 38 -84 84s38 84 84 84h616z" />
    <glyph glyph-name="pause" unicode="&#xf04c;" 
d="M1536 1344v-1408c0 -35 -29 -64 -64 -64h-512c-35 0 -64 29 -64 64v1408c0 35 29 64 64 64h512c35 0 64 -29 64 -64zM640 1344v-1408c0 -35 -29 -64 -64 -64h-512c-35 0 -64 29 -64 64v1408c0 35 29 64 64 64h512c35 0 64 -29 64 -64z" />
    <glyph glyph-name="paypal" unicode="&#xf1ed;" horiz-adv-x="1519" 
d="M1510 890c13 -60 10 -129 -4 -204c-65 -330 -284 -444 -565 -444h-44c-34 0 -62 -25 -68 -59l-4 -19l-55 -346l-2 -15c-7 -34 -35 -59 -69 -59h-251c-28 0 -46 23 -42 51c18 112 35 224 53 336s36 223 54 335c3 24 19 37 43 37c40 0 80 1 131 0c72 -1 155 3 236 21
c108 24 206 68 287 144c73 68 122 152 155 246c15 44 27 88 35 133c2 12 5 10 12 5c55 -41 86 -96 98 -162zM1338 1172c0 -82 -19 -160 -46 -236c-52 -151 -150 -259 -302 -315c-81 -29 -166 -41 -252 -42c-60 -1 -120 0 -180 0c-65 0 -106 -32 -118 -96
c-14 -76 -69 -430 -85 -530c-1 -7 -4 -10 -12 -10h-295c-30 0 -52 26 -48 55l232 1471c6 38 40 67 79 67h598c43 0 142 -19 209 -45c142 -55 220 -167 220 -319z" />
    <glyph glyph-name="ubuntu" unicode="&#xf4bd;" horiz-adv-x="1280" 
d="M640 1280c353 0 640 -287 640 -640s-287 -640 -640 -640s-640 287 -640 640s287 640 640 640zM849 1081c-29 1 -57 -14 -73 -41c-23 -39 -9 -89 30 -112s90 -9 113 30s8 89 -31 112c-12 7 -26 11 -39 11zM640 994c-56 0 -110 -14 -157 -37l58 -104c30 14 64 22 99 22
c123 0 223 -94 234 -214l119 2c-6 89 -44 169 -104 228c-32 -12 -68 -10 -100 8s-51 49 -56 82c-30 8 -61 13 -93 13zM444 934c-71 -47 -124 -119 -146 -204c26 -21 43 -54 43 -90s-17 -69 -43 -90c22 -85 75 -157 146 -204l61 102c-60 42 -100 113 -100 192s40 150 100 192
zM226 722c-45 0 -83 -37 -83 -82s38 -82 83 -82s82 37 82 82s-37 82 -82 82zM874 619c-11 -120 -111 -214 -234 -214c-35 0 -69 8 -99 22l-58 -104c47 -23 101 -37 157 -37c32 0 63 5 93 13c5 33 24 64 56 82s68 20 100 8c60 59 98 139 104 228zM845 363
c-13 0 -27 -4 -39 -11c-39 -23 -53 -73 -30 -112s73 -53 112 -30s54 73 31 112c-16 27 -45 42 -74 41z" />
    <glyph glyph-name="github-square" unicode="&#xf092;" 
d="M519 336c2 3 1 9 -3 13c-5 4 -11 5 -14 2c-2 -3 -1 -9 3 -13c5 -4 11 -5 14 -2zM491 377c-3 4 -8 6 -12 4c-3 -2 -3 -8 0 -12c4 -5 9 -7 12 -5s3 8 0 13zM450 417c1 2 -1 6 -5 8c-3 1 -7 1 -8 -2c-2 -3 0 -6 4 -8c4 -1 8 -1 9 2zM471 394c2 2 2 7 -2 10c-3 4 -8 5 -10 3
c-3 -3 -2 -7 1 -11c3 -3 8 -5 11 -2zM557 319c1 4 -3 9 -9 11s-11 0 -13 -4c-1 -4 3 -9 9 -11s11 0 13 4zM599 316c0 4 -5 8 -12 8c-6 0 -10 -4 -10 -8s5 -8 11 -8s11 4 11 8zM638 323c-1 4 -7 6 -13 5s-10 -5 -9 -9s6 -7 12 -6s10 6 10 10zM1280 640
c0 283 -229 512 -512 512s-512 -229 -512 -512c0 -226 147 -418 350 -486c26 -5 35 11 35 25c0 12 0 52 -1 95c0 0 -142 -31 -172 61c0 0 -23 59 -57 74c0 0 -46 32 4 32c0 0 50 -4 78 -53c45 -79 120 -56 149 -43c5 33 18 56 33 69c-114 13 -234 57 -234 253
c0 56 20 101 53 137c-5 13 -23 65 5 136c43 13 141 -53 141 -53c41 12 84 17 128 17s87 -5 128 -17c0 0 98 66 141 53c28 -71 10 -123 5 -136c33 -36 53 -81 53 -137c0 -197 -120 -240 -234 -253c18 -16 35 -47 35 -95c0 -68 -1 -123 -1 -140c0 -14 9 -30 35 -25
c203 68 350 260 350 486zM1536 1120v-960c0 -159 -129 -288 -288 -288h-960c-159 0 -288 129 -288 288v960c0 159 129 288 288 288h960c159 0 288 -129 288 -288z" />
    <glyph glyph-name="angrycreative" unicode="&#xf36c;" horiz-adv-x="2240" 
d="M2240 702l-11 -98l-121 -8l-7 -64l121 8l-11 -98l-121 -8l-8 -70l120 7l-10 -91l-226 -14l44 396l-166 -404l-111 -7l-84 412l107 7l47 -278l111 289zM1494 236l45 420l99 6l-45 -420zM567 178l-68 126l-12 -131l-99 -6l10 102c-38 -63 -113 -121 -200 -126
c-115 -7 -209 73 -197 204c9 103 93 220 236 229c132 8 167 -81 180 -101l10 108l136 9c70 5 135 -13 148 -83l10 93l226 15l-9 -98l-127 -9l-6 -62l127 8l-9 -98l-128 -8l-7 -69l128 8l-8 -73l193 410l83 6l112 -388l31 300l-78 -5l11 98l262 17l-10 -98l-85 -6l-34 -321
l-203 -13l-15 54l-138 -8l-28 -57zM412 423l-93 -6c-23 43 -50 59 -92 56c-66 -4 -116 -62 -121 -117c-5 -56 26 -114 101 -109c45 3 74 30 101 66l94 6zM608 450c4 45 -26 48 -91 44l-10 -100c50 3 96 7 101 56zM682 202l20 210c-18 -47 -51 -74 -97 -93zM1156 360l-28 132
l-55 -137zM561 621l-15 61l-139 -9l-28 -63l-112 -8l199 427l84 5l108 -357l34 367l95 6l132 -222l23 233l100 6l-14 -144c26 47 80 156 222 166s183 -102 187 -106l12 112l137 10c44 3 97 -1 127 -34l-15 41l112 8l46 -151l80 160l109 8l-153 -275l-17 -155l-99 -6l17 155
l-56 150c4 -78 -32 -141 -112 -174l89 -135l-128 -9l-67 129l-14 -134l-99 -7l11 111c-23 -33 -69 -124 -209 -133c-92 -6 -159 36 -193 137l-14 -141l-88 -6l-132 222l-22 -232zM1529 908c36 2 61 8 75 16c16 8 25 22 27 42c2 19 -2 30 -12 36c-13 7 -37 10 -80 7z
M1147 787c20 -21 44 -30 74 -28c16 1 32 7 47 15c19 10 37 28 53 50l-120 -8l9 83l220 15l5 42l-110 -7c-14 13 -26 23 -38 28c-14 6 -29 10 -43 9c-28 -2 -54 -12 -77 -32c-27 -22 -42 -50 -45 -85c-4 -34 5 -61 25 -82zM442 758l84 6l-29 132z" />
    <glyph glyph-name="wodu" unicode="&#xf4d2;" horiz-adv-x="2240" 
d="M624 347h-130l-101 407h-2l-100 -407h-133l-158 598h131l95 -407h2l103 407h124l102 -412h1l98 412h129zM950 792c136 0 224 -91 224 -229c0 -137 -88 -228 -224 -228s-224 91 -224 228c0 138 88 229 224 229zM950 425c81 0 105 69 105 138s-24 139 -105 139
c-97 0 -105 -70 -105 -139s25 -138 105 -138zM1523 402h-2c-28 -47 -76 -67 -131 -67c-131 0 -194 112 -194 232c0 116 64 225 191 225c51 0 101 -22 129 -65h1v218h119v-598h-113v55zM1419 702c-78 0 -105 -67 -105 -138c0 -68 31 -139 105 -139c79 0 102 69 102 140
c0 70 -25 137 -102 137zM2075 347h-113v60h-2c-30 -49 -82 -72 -132 -72c-126 0 -159 72 -159 179v266h119v-245c0 -71 21 -106 76 -106c64 0 92 36 92 124v227h119v-433zM2109 476h131v-129h-131v129z" />
    <glyph glyph-name="grin-alt" unicode="&#xf401;" horiz-adv-x="1736" 
d="M701 668c-26 -40 -86 -42 -114 0c-43 65 -53 131 -55 196c2 65 12 131 55 196c27 40 86 42 114 0c43 -65 53 -131 55 -196c-2 -65 -12 -131 -55 -196zM1149 668c-26 -40 -86 -42 -114 0c-43 65 -53 131 -55 196c2 65 12 131 55 196c27 40 86 42 114 0
c43 -65 53 -131 55 -196c-2 -65 -12 -131 -55 -196zM868 1508c480 0 868 -388 868 -868s-388 -868 -868 -868s-868 388 -868 868s388 868 868 868zM868 -60c386 0 700 314 700 700s-314 700 -700 700s-700 -314 -700 -700s314 -700 700 -700zM1238 470c35 11 68 -20 62 -54
c-28 -165 -250 -280 -432 -280s-404 115 -432 280c-6 35 27 65 62 54c91 -29 226 -46 370 -46s279 17 370 46z" />
    <glyph glyph-name="search" unicode="&#xf002;" horiz-adv-x="1664" 
d="M1152 704c0 247 -201 448 -448 448s-448 -201 -448 -448s201 -448 448 -448s448 201 448 448zM1664 -128c0 -70 -58 -128 -128 -128c-34 0 -67 14 -90 38l-343 342c-117 -81 -257 -124 -399 -124c-389 0 -704 315 -704 704s315 704 704 704s704 -315 704 -704
c0 -142 -43 -282 -124 -399l343 -343c23 -23 37 -56 37 -90z" />
    <glyph glyph-name="hedgedoc" unicode="&#xf420;" horiz-adv-x="1546" 
d="M773 1412l78 -78l94 59l59 -94l104 36l37 -104l110 12l12 -110l110 -12l-12 -110l105 -37l-37 -104l94 -59l-59 -94l78 -78l-78 -78l59 -94l-94 -59l37 -105l-105 -36l12 -110l-110 -13l-12 -110l-110 13l-37 -105l-104 37l-59 -94l-94 59v0c0 -43 -35 -78 -78 -78
s-78 35 -78 78l-94 -59l-59 94l-104 -37l-37 105l-110 -13l-12 110l-110 13l12 110l-104 36l36 105l-94 59l59 94l-78 78l78 78l-59 94l94 59l-36 104l104 37l-12 110l110 12l12 110l110 -12l37 104l104 -36l59 93l94 -58zM510 791v0c-151 0 -274 -123 -274 -274
c0 -79 33 -151 87 -201l372 -372c20 20 48 33 78 33s58 -13 78 -33l362 363c55 52 96 125 96 208c0 151 -123 274 -274 274c-75 0 -143 -30 -192 -79v0l-70 -70l-57 57c-50 57 -124 94 -206 94zM621 478c33 0 60 -27 60 -60s-27 -60 -60 -60s-59 27 -59 60s26 60 59 60z
M925 478v0c33 0 60 -27 60 -60s-27 -60 -60 -60s-60 27 -60 60s27 60 60 60zM644 443c-9 0 -16 -7 -16 -16s7 -17 16 -17s17 8 17 17s-8 16 -17 16zM948 443v0c-9 0 -17 -7 -17 -16s8 -17 17 -17s17 8 17 17s-8 16 -17 16z" />
    <glyph glyph-name="uikit" unicode="&#xf4be;" horiz-adv-x="1554" 
d="M1554 1088v-896l-791 -448l-763 448v750l307 -158v-409l467 -265l475 265v528l-354 202l307 186zM1080 1364l-306 -185l-301 165l310 192z" />
    <glyph glyph-name="file-image" unicode="&#xf3dd;" horiz-adv-x="1344" 
d="M1295 1193c32 -32 49 -75 49 -119v-1162c0 -93 -75 -168 -168 -168h-1008c-93 0 -168 75 -168 168v1456c0 93 75 168 168 168h714c44 0 87 -17 119 -49zM1162 1088l-266 266v-266h266zM168 -88h1008v1008h-364c-47 0 -84 37 -84 84v364h-560v-1456zM280 80v224l138 138
c16 16 44 16 60 0l138 -138l306 306c16 16 44 16 60 0l82 -82v-448h-784zM448 920c93 0 168 -75 168 -168s-75 -168 -168 -168s-168 75 -168 168s75 168 168 168z" />
    <glyph glyph-name="mixcloud" unicode="&#xf289;" horiz-adv-x="2304" 
d="M1645 438c0 80 -51 148 -121 175c-5 -31 -13 -62 -23 -92c-10 -32 -40 -52 -72 -52c-8 0 -16 1 -24 3c-41 14 -62 57 -49 97c15 46 23 94 23 143c0 250 -204 454 -455 454c-180 0 -342 -107 -414 -267c70 -18 135 -54 188 -106c30 -30 30 -79 0 -109s-79 -30 -109 0
c-48 48 -112 75 -180 75c-141 0 -256 -114 -256 -255s115 -255 256 -255h1046c105 0 190 85 190 189zM1798 438c0 -189 -154 -342 -343 -342h-1046c-226 0 -409 183 -409 408c0 205 152 374 349 403c83 244 314 412 575 412c315 0 575 -241 605 -548
c153 -33 269 -170 269 -333zM2048 438c0 -114 -33 -224 -97 -319c-15 -22 -39 -33 -64 -33c-15 0 -30 4 -43 13c-35 23 -44 71 -20 106c47 69 71 149 71 233c0 83 -24 164 -71 233c-24 35 -15 82 20 106s83 14 107 -21c64 -94 97 -204 97 -318zM2304 438
c0 -159 -46 -312 -134 -443c-15 -22 -39 -34 -64 -34c-14 0 -29 4 -42 13c-35 24 -45 71 -21 106c70 106 108 230 108 358s-38 252 -108 357c-24 35 -14 83 21 106c35 24 82 15 106 -21c88 -130 134 -283 134 -442z" />
    <glyph glyph-name="usps" unicode="&#xf4c4;" horiz-adv-x="1827" 
d="M1517 690c-5 -8 -16 -16 -14 0c10 41 49 107 16 112c-62 11 -309 -16 -309 0c0 8 94 11 133 31c33 33 38 28 38 28h95c94 0 131 -26 41 -171zM1124 611c-218 -74 -437 -189 -1124 -530l183 859c648 0 1174 20 1183 -79h-688l107 -327c122 59 424 181 605 189
c76 3 106 -10 91 -20c-16 -8 -133 -17 -357 -92zM237 1200h1590l-237 -1119h-1481s1408 551 1423 561c0 0 125 168 51 237c-23 23 -57 23 -184 23c-7 68 -275 110 -1162 298z" />
    <glyph glyph-name="venus-mars" unicode="&#xf228;" horiz-adv-x="2048" 
d="M1664 1504c0 18 14 32 32 32h288c35 0 64 -29 64 -64v-288c0 -18 -14 -32 -32 -32h-64c-18 0 -32 14 -32 32v134l-254 -255c98 -123 147 -286 117 -461c-42 -240 -237 -431 -478 -467c-152 -23 -295 14 -409 90c-75 -50 -162 -83 -256 -93v-132h96c18 0 32 -14 32 -32
v-64c0 -18 -14 -32 -32 -32h-96v-96c0 -18 -14 -32 -32 -32h-64c-18 0 -32 14 -32 32v96h-96c-18 0 -32 14 -32 32v64c0 18 14 32 32 32h96v132c-314 35 -553 323 -506 654c34 249 232 449 480 487c153 23 296 -14 410 -90c92 61 202 97 320 97c136 0 261 -48 359 -126
l255 254h-134c-18 0 -32 14 -32 32v64zM896 391c79 81 128 191 128 313s-49 232 -128 313c-79 -81 -128 -191 -128 -313s49 -232 128 -313zM128 704c0 -247 201 -448 448 -448c79 0 154 21 218 57c-95 103 -154 240 -154 391s59 288 154 391c-64 36 -139 57 -218 57
c-247 0 -448 -201 -448 -448zM1216 256c247 0 448 201 448 448s-201 448 -448 448c-79 0 -154 -21 -218 -57c95 -103 154 -240 154 -391s-59 -288 -154 -391c64 -36 139 -57 218 -57z" />
    <glyph glyph-name="anchor" unicode="&#xf13d;" horiz-adv-x="1792" 
d="M960 1280c0 35 -29 64 -64 64s-64 -29 -64 -64s29 -64 64 -64s64 29 64 64zM1792 352v-352c0 -13 -8 -25 -20 -30c-4 -1 -8 -2 -12 -2c-8 0 -16 3 -23 9l-93 93c-157 -189 -439 -310 -748 -310s-591 121 -748 310l-93 -93c-6 -6 -15 -9 -23 -9c-4 0 -8 1 -12 2
c-12 5 -20 17 -20 30v352c0 18 14 32 32 32h352c13 0 25 -8 30 -20s2 -25 -7 -35l-100 -100c90 -121 263 -209 461 -236v647h-192c-35 0 -64 29 -64 64v128c0 35 29 64 64 64h192v163c-76 44 -128 126 -128 221c0 141 115 256 256 256s256 -115 256 -256
c0 -95 -52 -177 -128 -221v-163h192c35 0 64 -29 64 -64v-128c0 -35 -29 -64 -64 -64h-192v-647c198 27 371 115 461 236l-100 100c-9 10 -12 23 -7 35s17 20 30 20h352c18 0 32 -14 32 -32z" />
    <glyph glyph-name="itunes" unicode="&#xf433;" horiz-adv-x="1568" 
d="M783 1255c331 0 599 -269 599 -600s-268 -599 -599 -599s-599 269 -599 600s268 599 599 599zM1060 415c5 22 4 -10 4 587c0 20 -12 31 -32 30c-6 0 -48 -9 -402 -75c-3 0 -17 -3 -24 -9s-11 -14 -12 -23c-6 -23 9 -448 -9 -468c-7 -9 -17 -11 -27 -13
c-62 -11 -104 -16 -133 -44c-51 -50 -25 -137 50 -151c28 -5 81 3 110 19c26 13 45 36 52 68c6 27 5 9 5 415c0 20 5 25 23 29c0 0 308 58 322 60c20 4 29 -2 29 -22c0 -276 3 -269 -8 -282c-7 -9 -17 -11 -27 -13c-62 -11 -104 -17 -133 -45c-37 -36 -36 -94 5 -129
c34 -27 70 -25 112 -17c48 9 84 35 95 83zM1208 1424c199 0 360 -161 360 -360v-848c0 -199 -160 -360 -360 -360h-848c-199 0 -360 161 -360 360v848c0 199 161 360 360 360h848zM783 -18c372 0 673 302 673 674s-301 674 -673 674s-674 -302 -674 -674s302 -674 674 -674z
" />
    <glyph glyph-name="flask" unicode="&#xf0c3;" horiz-adv-x="1458" 
d="M1424 88c75 -119 22 -216 -119 -216h-1152c-141 0 -194 97 -119 216l503 793v399h-64c-35 0 -64 29 -64 64s29 64 64 64h512c35 0 64 -29 64 -64s-29 -64 -64 -64h-64v-399zM645 813l-272 -429h712l-272 429l-20 31v436h-128v-436z" />
    <glyph glyph-name="pinterest-square" unicode="&#xf0d3;" 
d="M1248 1408c159 0 288 -129 288 -288v-960c0 -159 -129 -288 -288 -288h-725c33 47 87 128 108 210c0 0 9 34 53 209c27 -51 104 -95 186 -95c244 0 410 223 410 521c0 225 -191 435 -481 435c-361 0 -543 -259 -543 -475c0 -130 50 -246 156 -290c17 -7 33 0 38 19
c3 13 11 47 15 61c5 19 3 26 -11 42c-30 37 -50 83 -50 150c0 192 144 363 374 363c204 0 316 -124 316 -291c0 -219 -97 -404 -241 -404c-79 0 -139 66 -120 147c23 96 67 200 67 269c0 62 -33 114 -102 114c-81 0 -146 -84 -146 -196c0 0 0 -72 24 -121
c-83 -352 -98 -414 -98 -414c-22 -92 -13 -199 -7 -254h-183c-159 0 -288 129 -288 288v960c0 159 129 288 288 288h960z" />
    <glyph glyph-name="calendar-times" unicode="&#xf38c;" horiz-adv-x="1568" 
d="M1091 225l-60 -60c-16 -16 -43 -16 -59 0l-188 188l-188 -188c-16 -16 -43 -16 -59 0l-60 60c-16 16 -16 43 0 59l188 188l-188 188c-16 16 -16 44 0 60l60 59c16 16 43 16 59 0l188 -188l188 188c16 16 43 16 59 0l60 -59c16 -16 16 -44 0 -60l-188 -188l188 -188
c17 -16 16 -43 0 -59zM1568 1144v-1232c0 -93 -75 -168 -168 -168h-1232c-93 0 -168 75 -168 168v1232c0 93 75 168 168 168h168v182c0 23 19 42 42 42h140c23 0 42 -19 42 -42v-182h448v182c0 23 19 42 42 42h140c23 0 42 -19 42 -42v-182h168c93 0 168 -75 168 -168z
M1400 -67v1043h-1232v-1043c0 -12 9 -21 21 -21h1190c12 0 21 9 21 21z" />
    <glyph glyph-name="meh-o" unicode="&#xf11a;" 
d="M1152 448c0 -35 -29 -64 -64 -64h-640c-35 0 -64 29 -64 64s29 64 64 64h640c35 0 64 -29 64 -64zM640 896c0 -71 -57 -128 -128 -128s-128 57 -128 128s57 128 128 128s128 -57 128 -128zM1152 896c0 -71 -57 -128 -128 -128s-128 57 -128 128s57 128 128 128
s128 -57 128 -128zM1408 640c0 353 -287 640 -640 640s-640 -287 -640 -640s287 -640 640 -640s640 287 640 640zM1536 640c0 -424 -344 -768 -768 -768s-768 344 -768 768s344 768 768 768s768 -344 768 -768z" />
    <glyph glyph-name="volume-control-phone" unicode="&#xf2a0;" horiz-adv-x="1408" 
d="M617 -153c0 -34 -90 -84 -119 -95c-15 -6 -30 -8 -45 -8c-33 0 -66 9 -98 18c-164 49 -203 149 -268 290c-70 151 -87 295 -87 460s17 309 87 460c65 141 104 241 268 290c32 9 65 18 98 18c15 0 30 -2 45 -8c29 -11 119 -61 119 -95c0 -24 -53 -194 -64 -234
c-6 -25 -8 -66 -27 -84c-13 -12 -34 -14 -51 -14c-47 0 -94 11 -141 11c-14 0 -35 -1 -47 -11c-16 -13 -24 -58 -30 -78c-24 -83 -37 -168 -37 -255s13 -172 37 -255c6 -20 14 -65 30 -78c12 -10 33 -11 47 -11c47 0 94 11 141 11c17 0 38 -2 51 -14c19 -18 21 -59 27 -84
c11 -40 64 -210 64 -234zM776 760c-17 0 -33 7 -45 19c-25 25 -26 66 0 91c24 24 37 56 37 90s-13 66 -37 91c-26 25 -25 65 0 90s65 25 90 0c48 -48 75 -113 75 -181s-27 -133 -75 -181c-13 -12 -29 -19 -45 -19zM957 579c-17 0 -33 6 -45 19c-25 25 -25 65 0 90
c72 73 112 169 112 272s-40 199 -112 272c-25 25 -25 65 0 90s65 25 90 0c97 -97 150 -225 150 -362s-53 -265 -150 -362c-12 -13 -29 -19 -45 -19zM1138 398c-17 0 -33 6 -45 19c-25 25 -25 65 0 90c120 121 187 282 187 453s-67 332 -187 453c-25 25 -25 65 0 90
s65 25 90 0c145 -145 225 -338 225 -543s-80 -398 -225 -543c-12 -13 -29 -19 -45 -19z" />
    <glyph glyph-name="biometric" unicode="&#xf32b;" horiz-adv-x="2304" 
d="M1419 640c0 -147 -120 -267 -267 -267s-267 120 -267 267s120 267 267 267s267 -120 267 -267zM0 1222h2304v-521h-769c-29 185 -190 327 -383 327s-354 -142 -383 -327h-769v521zM0 579h769c29 -185 190 -327 383 -327s354 142 383 327h769v-521h-2304v521z" />
    <glyph glyph-name="tasks" unicode="&#xf0ae;" horiz-adv-x="1792" 
d="M1024 128h640v128h-640v-128zM640 640h1024v128h-1024v-128zM1280 1152h384v128h-384v-128zM1792 320v-256c0 -35 -29 -64 -64 -64h-1664c-35 0 -64 29 -64 64v256c0 35 29 64 64 64h1664c35 0 64 -29 64 -64zM1792 832v-256c0 -35 -29 -64 -64 -64h-1664
c-35 0 -64 29 -64 64v256c0 35 29 64 64 64h1664c35 0 64 -29 64 -64zM1792 1344v-256c0 -35 -29 -64 -64 -64h-1664c-35 0 -64 29 -64 64v256c0 35 29 64 64 64h1664c35 0 64 -29 64 -64z" />
    <glyph glyph-name="firefox" unicode="&#xf269;" horiz-adv-x="1792" 
d="M903 -256c-386 0 -693 226 -834 549c-158 359 -32 934 249 1188l-11 -281c14 18 121 23 138 0c58 111 245 194 395 197c-57 -48 -189 -223 -178 -312c73 -23 185 -24 244 -28c18 -10 15 -71 -21 -121c0 0 -47 -65 -174 -88l15 -189l-139 67c-45 -114 63 -215 175 -196
c124 21 168 102 255 97c86 -5 120 -53 109 -98c0 0 -14 -54 -107 -45c-79 -125 -184 -180 -354 -165c258 -214 606 -20 694 155c88 174 11 433 -77 506c104 -45 176 -91 214 -192c20 224 -83 478 -267 627c346 -101 557 -369 563 -797s-379 -874 -889 -874z" />
    <glyph glyph-name="apple" unicode="&#xf179;" horiz-adv-x="1393" 
d="M1393 321c-25 -79 -65 -163 -123 -250c-86 -131 -172 -196 -257 -196c-34 0 -80 11 -140 32c-59 22 -110 32 -151 32c-40 0 -88 -11 -142 -33c-55 -23 -99 -34 -132 -34c-103 0 -202 87 -301 259c-97 172 -147 339 -147 503c0 153 38 277 113 374c75 96 169 144 284 144
c49 0 107 -10 177 -30c69 -20 115 -30 138 -30c29 0 77 11 143 34c66 22 124 34 173 34c80 0 151 -22 213 -65c35 -24 70 -58 104 -100c-52 -44 -90 -83 -114 -118c-43 -62 -65 -131 -65 -207c0 -82 23 -157 69 -223s99 -108 158 -126zM1017 1494c0 -41 -10 -87 -29 -136
c-20 -50 -51 -96 -93 -138c-36 -36 -72 -60 -108 -72c-23 -7 -57 -13 -104 -17c2 99 28 185 78 257s134 121 250 148c2 -9 4 -16 5 -22c0 -7 1 -13 1 -20z" />
    <glyph glyph-name="dyalog" unicode="&#xf3c6;" horiz-adv-x="1456" 
d="M0 1424h599c261 0 482 -84 639 -244c141 -143 218 -335 218 -540c0 -390 -295 -784 -857 -784h-599v224h599c428 0 633 294 633 560c0 279 -236 560 -633 560h-375v-193h-224v417z" />
    <glyph glyph-name="proftpd" unicode="&#xf480;" horiz-adv-x="1763" 
d="M864 1387v0c32 0 65 0 96 -10c14 -3 29 -11 29 -24c0 -15 -17 -27 -33 -30c-21 -3 -42 -3 -63 -6c-61 -11 -119 -33 -174 -57c-106 -48 -207 -105 -295 -175c-99 -80 -174 -178 -233 -282c-75 -133 -128 -278 -141 -426c-4 -27 -1 -54 -4 -81c-2 -10 -2 -23 -12 -30
c-9 -7 -24 -1 -27 8c-4 15 -4 31 -5 46c-11 198 25 398 115 581c59 118 140 230 255 314c44 34 95 60 148 83c105 51 223 86 344 89zM757 1233v0c6 0 11 -2 15 -5c14 -12 13 -31 13 -47c1 -10 0 -23 11 -30c20 -4 40 5 59 9c89 15 180 8 270 2c13 -1 25 0 38 -2
c3 18 2 37 13 53c7 14 28 19 43 12c23 -13 37 -36 46 -58c8 -18 7 -38 17 -56c14 -24 41 -38 62 -57c65 -59 96 -140 100 -220c4 -90 -25 -184 -91 -256c-30 -35 -73 -59 -116 -81c-15 -6 -26 -18 -42 -23c-13 -6 -30 4 -28 16c8 25 27 47 45 68c25 27 51 54 69 86
c39 65 43 144 11 212c-34 74 -112 129 -199 154c-27 7 -54 15 -82 14c-23 0 -42 -15 -53 -31c-26 -39 -46 -82 -64 -124c-6 -17 -17 -35 -9 -53c19 -24 53 -34 77 -54c-30 -18 -60 -35 -91 -52c-12 -6 -24 -12 -31 -23c-22 -35 -33 -74 -43 -113c-36 -145 -52 -295 -57 -443
c-3 -52 -1 -104 -4 -156c-2 -12 1 -26 -7 -37c-6 -10 -25 -8 -31 1c-15 34 -21 70 -27 105c-17 117 -21 236 -19 354c-1 60 9 120 12 180c0 4 -5 -1 -8 -2c-47 -28 -88 -63 -126 -99c-19 -20 -42 -40 -53 -65c-6 -27 -5 -55 -4 -83c4 -63 12 -126 26 -188
c9 -36 18 -73 33 -107c5 -13 11 -26 8 -40c-3 -11 -20 -16 -31 -11c-20 12 -33 29 -44 47c-38 64 -67 132 -87 201c-8 23 -8 48 -20 70c-17 -13 -29 -30 -41 -46c-16 -20 -29 -42 -49 -60c-7 -10 -27 -12 -35 -2c-8 19 -6 40 -3 59c12 57 45 145 75 197c22 31 38 66 49 101
c19 71 34 144 62 213c35 94 96 179 173 252c20 20 44 37 64 57c32 39 32 90 61 130c9 14 23 30 43 31zM1699 994v0c5 0 11 -1 15 -4c16 -12 23 -30 28 -47c18 -67 22 -136 21 -205c1 -69 -16 -136 -38 -202c-19 -64 -46 -127 -84 -185c-50 -76 -113 -145 -184 -207
c-89 -78 -192 -146 -302 -201c-32 -16 -65 -28 -100 -39c-58 -18 -121 -34 -184 -29c-15 2 -33 3 -45 13c-9 6 -10 18 -3 26c13 14 35 19 55 21c37 3 71 17 104 31c80 35 157 76 230 121c124 76 231 173 309 286c83 117 124 253 135 388c8 68 -3 138 15 206
c3 12 12 26 28 27zM758 916v0c-26 -14 -47 -34 -67 -54c-29 -32 -62 -64 -78 -102c17 -2 36 0 53 4c18 5 37 8 50 20c13 19 21 39 28 60c7 24 14 48 14 72z" />
    <glyph glyph-name="cc-stripe" unicode="&#xf1f5;" horiz-adv-x="2304" 
d="M1597 633c0 -46 -7 -81 -21 -106c-12 -22 -31 -35 -52 -35c-15 0 -29 3 -41 9v224c26 27 49 30 57 30c38 0 57 -42 57 -122zM2035 669h-110c4 67 22 98 56 98s52 -32 54 -98zM476 534c0 84 -51 119 -134 149c-44 16 -68 29 -68 49c0 17 14 26 38 26c46 0 92 -17 124 -33
l18 112c-25 12 -77 32 -149 32c-51 0 -93 -13 -123 -38c-32 -26 -48 -64 -48 -109c0 -82 50 -118 132 -147c52 -19 70 -32 70 -53c0 -20 -17 -31 -48 -31c-38 0 -101 19 -142 43l-18 -113c35 -20 100 -41 168 -41c54 0 98 13 129 37c34 27 51 66 51 117zM771 749l19 111h-96
v135l-129 -21l-18 -114l-46 -8l-17 -103h62v-219c0 -57 15 -96 44 -120c25 -20 61 -30 111 -30c39 0 62 7 79 11v118c-9 -2 -30 -7 -44 -7c-29 0 -42 16 -42 50v197h77zM1087 724v139c-10 2 -19 3 -28 3c-42 0 -76 -22 -89 -62l-10 56h-131v-471h150v306c19 23 46 31 82 31
c8 0 16 0 26 -2zM1124 389h150v471h-150v-471zM1746 638c0 80 -15 141 -45 179c-27 35 -64 52 -111 52c-43 0 -81 -18 -117 -56l-8 47h-132v-645l150 25v151c23 -7 47 -11 68 -11c37 0 92 10 134 56c41 44 61 112 61 202zM1278 986c0 44 -35 79 -79 79s-79 -35 -79 -79
s35 -80 79 -80s79 36 79 80zM2176 629c0 75 -16 134 -48 176c-33 42 -82 64 -144 64c-128 0 -207 -94 -207 -246c0 -84 21 -148 63 -188c37 -37 91 -55 161 -55c64 0 123 15 160 40l-16 103c-37 -20 -80 -31 -128 -31c-29 0 -49 6 -63 19c-16 13 -25 35 -28 66h248
c1 7 2 41 2 52zM2304 1280v-1280c0 -70 -58 -128 -128 -128h-2048c-70 0 -128 58 -128 128v1280c0 70 58 128 128 128h2048c70 0 128 -58 128 -128z" />
    <glyph glyph-name="quote-left" unicode="&#xf10d;" horiz-adv-x="1664" 
d="M768 576v-384c0 -106 -86 -192 -192 -192h-384c-106 0 -192 86 -192 192v704c0 282 230 512 512 512h64c35 0 64 -29 64 -64v-128c0 -35 -29 -64 -64 -64h-64c-141 0 -256 -115 -256 -256v-32c0 -53 43 -96 96 -96h224c106 0 192 -86 192 -192zM1664 576v-384
c0 -106 -86 -192 -192 -192h-384c-106 0 -192 86 -192 192v704c0 282 230 512 512 512h64c35 0 64 -29 64 -64v-128c0 -35 -29 -64 -64 -64h-64c-141 0 -256 -115 -256 -256v-32c0 -53 43 -96 96 -96h224c106 0 192 -86 192 -192z" />
    <glyph glyph-name="user-times" unicode="&#xf235;" horiz-adv-x="2039" 
d="M704 640c-212 0 -384 172 -384 384s172 384 384 384s384 -172 384 -384s-172 -384 -384 -384zM1781 320l249 -249c6 -6 9 -14 9 -23c0 -8 -3 -16 -9 -22l-136 -136c-6 -6 -14 -9 -22 -9c-9 0 -17 3 -23 9l-249 249l-249 -249c-6 -6 -14 -9 -23 -9c-8 0 -16 3 -22 9
l-136 136c-6 6 -9 14 -9 22c0 9 3 17 9 23l249 249l-249 249c-6 6 -9 14 -9 23c0 8 3 16 9 22l136 136c6 6 14 9 22 9c9 0 17 -3 23 -9l249 -249l249 249c6 6 14 9 23 9c8 0 16 -3 22 -9l136 -136c6 -6 9 -14 9 -22c0 -9 -3 -17 -9 -23zM1283 320l-181 -181
c-24 -24 -37 -57 -37 -91c0 -33 13 -66 37 -90l83 -83c-14 -2 -29 -3 -44 -3h-874c-160 0 -267 96 -267 259c0 226 53 573 346 573c16 0 27 -7 39 -17c96 -76 194 -122 319 -122s223 46 319 122c12 10 23 17 39 17c19 0 38 -2 57 -6c-33 -32 -54 -58 -54 -106
c0 -34 13 -67 37 -91z" />
    <glyph glyph-name="julia" unicode="&#xf334;" horiz-adv-x="2304" 
d="M1760 1536c75 0 135 -60 135 -135s-60 -136 -135 -136v0c-75 0 -136 61 -136 136s61 135 136 135zM346 1258v0c75 0 135 -60 135 -135v0c0 -75 -60 -135 -135 -135v0c-75 0 -135 60 -135 135s60 135 135 135zM1598 1258c75 0 135 -60 135 -135s-60 -135 -135 -135v0v0
c-75 0 -136 60 -136 135s61 135 136 135v0zM1922 1258v0c75 0 135 -60 135 -135s-60 -135 -135 -135s-136 60 -136 135s61 135 136 135v0zM1405 1250v-976h-198v920zM448 950v-676c0 -58 -6 -105 -19 -141s-32 -63 -56 -83s-53 -33 -87 -40s-72 -10 -113 -10
c-56 0 -98 9 -128 26s-45 39 -45 63c0 20 8 38 25 52s39 21 67 21c21 0 37 -6 50 -17s23 -23 31 -34c9 -12 18 -20 24 -24s12 -7 17 -7c11 0 19 7 25 20s9 39 9 77v718zM1684 950v-676h-200v621zM2033 946c47 0 88 -4 122 -12s62 -21 84 -37s39 -34 49 -56s16 -48 16 -75
v-492h-200v53c-11 -9 -22 -18 -32 -26s-23 -15 -36 -21s-28 -10 -44 -13s-36 -5 -58 -5c-30 0 -57 4 -81 13s-45 21 -62 36s-30 33 -39 54s-13 44 -13 68c0 25 4 48 14 68s22 39 39 55s36 30 58 43s47 25 72 36s52 21 79 30c22 7 58 18 81 25l22 6v64c0 42 -8 72 -24 89
s-37 27 -64 27c-31 0 -54 -8 -66 -23s-18 -33 -18 -55c0 -12 -1 -24 -4 -36s-8 -22 -14 -31s-15 -16 -27 -21s-27 -7 -45 -7c-28 0 -51 8 -68 24s-27 36 -27 60c0 23 9 44 24 64s36 36 62 50s57 25 91 33s71 12 109 12zM527 931v0h199v-463c0 -13 3 -25 8 -36s11 -21 20 -29
s19 -15 31 -20s24 -7 37 -7c15 0 34 8 54 23s38 35 53 58v474h199v-657h-199v62c-26 -22 -54 -41 -84 -54s-58 -20 -86 -20c-33 0 -63 5 -91 16s-53 25 -74 44s-37 41 -49 66s-18 51 -18 80v463zM2104 613c-19 -8 -38 -17 -58 -28s-38 -22 -54 -35s-28 -26 -38 -41
s-15 -30 -15 -46c0 -12 2 -24 5 -35s7 -22 13 -30s12 -14 19 -19s15 -8 23 -8c16 0 32 5 49 15s36 23 56 38v189z" />
    </font>
</defs>
</svg>
